<svg width="370" height="370" viewBox="0 0 370 370" fill="none" xmlns="http://www.w3.org/2000/svg">
<path d="M115.24 239.664H58.6893V314.256H115.24V239.664Z" fill="#E0E0E0"/>
<path d="M115.24 239.664H88.726V314.256H115.24V239.664Z" fill="#F0F0F0"/>
<path d="M75.6279 249.765H70.5441V262.115H75.6279V249.765Z" fill="#F5F5F5"/>
<path d="M75.6279 298.109H70.5441V310.46H75.6279V298.109Z" fill="#F5F5F5"/>
<path d="M88.7259 266.962C88.7259 267.073 81.9993 267.155 73.7039 267.155C65.4085 267.155 58.6893 267.073 58.6893 266.962C58.6893 266.851 65.4085 266.77 73.7039 266.77C81.9993 266.77 88.7259 266.859 88.7259 266.962Z" fill="white"/>
<path d="M75.6279 274.118H70.5441V286.469H75.6279V274.118Z" fill="#F5F5F5"/>
<path d="M88.7259 291.323C88.7259 291.427 81.9993 291.516 73.7039 291.516C65.4085 291.516 58.6893 291.427 58.6893 291.323C58.6893 291.22 65.4085 291.131 73.7039 291.131C81.9993 291.131 88.7259 291.22 88.7259 291.323Z" fill="white"/>
<path d="M99.4411 249.765H94.3574V262.115H99.4411V249.765Z" fill="#E0E0E0"/>
<path d="M110.467 249.765H105.383V262.115H110.467V249.765Z" fill="#E0E0E0"/>
<path d="M99.4411 273.208H94.3574V285.559H99.4411V273.208Z" fill="#E0E0E0"/>
<path d="M110.467 273.208H105.383V285.559H110.467V273.208Z" fill="#E0E0E0"/>
<path d="M99.4411 296.644H94.3574V308.994H99.4411V296.644Z" fill="#E0E0E0"/>
<path d="M110.467 296.644H105.383V308.994H110.467V296.644Z" fill="#E0E0E0"/>
<path d="M119.495 237.066H54.4417V239.753H119.495V237.066Z" fill="#E0E0E0"/>
<path d="M115.632 240.012C115.632 240.115 102.993 240.204 87.4088 240.204C71.8244 240.204 59.2 240.115 59.2 240.012C59.2 239.908 71.8392 239.819 87.431 239.819C103.023 239.819 115.632 239.908 115.632 240.012Z" fill="white"/>
<path d="M271.802 260.162H231.124V313.812H271.802V260.162Z" fill="#E0E0E0"/>
<path d="M271.802 260.162H252.732V313.812H271.802V260.162Z" fill="#F0F0F0"/>
<path d="M243.312 267.421H239.656V276.309H243.312V267.421Z" fill="#F5F5F5"/>
<path d="M243.312 302.201H239.656V311.089H243.312V302.201Z" fill="#F5F5F5"/>
<path d="M252.732 279.794C252.732 279.875 247.893 279.934 241.928 279.934C235.964 279.934 231.124 279.875 231.124 279.794C231.124 279.712 235.964 279.661 241.928 279.661C247.893 279.661 252.732 279.72 252.732 279.794Z" fill="white"/>
<path d="M243.312 284.944H239.656V293.832H243.312V284.944Z" fill="#F5F5F5"/>
<path d="M252.732 297.317C252.732 297.391 247.893 297.458 241.928 297.458C235.964 297.458 231.124 297.391 231.124 297.317C231.124 297.243 235.964 297.177 241.928 297.177C247.893 297.177 252.732 297.236 252.732 297.317Z" fill="white"/>
<path d="M260.436 267.421H256.78V276.309H260.436V267.421Z" fill="#E0E0E0"/>
<path d="M268.368 267.421H264.713V276.309H268.368V267.421Z" fill="#E0E0E0"/>
<path d="M260.436 284.286H256.78V293.173H260.436V284.286Z" fill="#E0E0E0"/>
<path d="M268.368 284.286H264.713V293.173H268.368V284.286Z" fill="#E0E0E0"/>
<path d="M260.436 301.143H256.78V310.03H260.436V301.143Z" fill="#E0E0E0"/>
<path d="M268.368 301.143H264.713V310.03H268.368V301.143Z" fill="#E0E0E0"/>
<path d="M274.858 258.29H228.068V260.221H274.858V258.29Z" fill="#E0E0E0"/>
<path d="M272.083 260.406C272.083 260.487 262.996 260.547 251.785 260.547C240.574 260.547 231.479 260.487 231.479 260.406C231.479 260.325 240.567 260.273 251.785 260.273C263.003 260.273 272.083 260.332 272.083 260.406Z" fill="white"/>
<path d="M43.9708 113.405H85.6254C85.6254 113.405 85.6254 103.866 80.7044 103.866C78.9414 103.81 77.214 104.37 75.82 105.451C74.4259 106.532 73.4525 108.065 73.0676 109.786C73.0676 109.786 73.0676 92.0262 64.1136 94.6014C55.6406 97.073 54.6786 108.462 54.6786 108.462C54.6786 108.462 53.1542 102.734 48.5662 105.96C43.9782 109.187 43.9708 113.405 43.9708 113.405Z" fill="#E0E0E0"/>
<path d="M253.946 55.4999H280.956C280.956 55.4999 280.956 49.3135 277.766 49.3135C276.624 49.2756 275.504 49.6379 274.6 50.3377C273.696 51.0376 273.065 52.0311 272.816 53.1467C272.816 53.1467 272.816 41.6101 267.007 43.3047C261.516 44.9031 260.894 52.2883 260.894 52.2883C260.894 52.2883 259.903 48.5883 256.928 50.6677C253.953 52.7471 253.946 55.4999 253.946 55.4999Z" fill="#EBEBEB"/>
<path d="M306.36 144.818H333.37C333.37 144.818 333.37 138.639 330.181 138.639C329.038 138.601 327.918 138.963 327.014 139.663C326.111 140.363 325.479 141.357 325.23 142.472C325.23 142.472 325.23 130.936 319.428 132.63C313.93 134.229 313.309 141.614 313.309 141.614C313.309 141.614 312.324 137.914 309.342 139.993C306.36 142.073 306.36 144.818 306.36 144.818Z" fill="#E0E0E0"/>
<path d="M322.596 314.256C322.596 314.359 257.705 314.448 177.667 314.448C97.6282 314.448 32.7228 314.359 32.7228 314.256C32.7228 314.152 97.606 314.063 177.667 314.063C257.727 314.063 322.596 314.145 322.596 314.256Z" fill="#263238"/>
<path d="M217.612 314.271L123.787 313.834C118.369 313.809 113.183 311.633 109.368 307.785C105.554 303.937 103.423 298.732 103.445 293.314L104.444 58.0974C104.453 55.4124 104.992 52.7557 106.029 50.2791C107.066 47.8025 108.582 45.5546 110.488 43.6639C112.394 41.7733 114.655 40.277 117.14 39.2605C119.625 38.244 122.286 37.7273 124.971 37.74L218.796 38.1766C224.215 38.202 229.403 40.3788 233.218 44.2283C237.032 48.0778 239.162 53.2847 239.138 58.7042L238.147 293.921C238.121 299.342 235.944 304.531 232.093 308.347C228.242 312.164 223.033 314.294 217.612 314.271Z" fill="#263238"/>
<path d="M110.29 158.981V159.049H110.305L110.29 158.981Z" fill="white"/>
<path d="M131.72 160.817L113.301 164.339C113.346 170.272 113.87 176.192 114.87 182.04C115.164 184.268 115.788 186.44 116.72 188.485C117.559 190.128 118.794 191.535 120.314 192.58C121.833 193.625 123.589 194.275 125.423 194.472C128.153 187.383 129.411 179.087 130.536 170.096L131.72 160.817ZM127.791 168.513L126.459 180.634C126.381 181.898 126.119 183.145 125.682 184.334C125.47 184.916 125.13 185.444 124.687 185.877C124.244 186.31 123.709 186.637 123.121 186.835C121.545 187.249 119.887 186.213 118.977 184.8C118.177 183.302 117.674 181.664 117.497 179.975L116.432 173.944C116.099 172.657 116.086 171.308 116.395 170.015C117.075 167.98 119.236 166.922 121.264 166.552C123.291 166.182 125.408 166.263 127.324 165.479L127.946 167.388L127.791 168.513Z" fill="white"/>
<path d="M141.273 190.224C142.287 185.57 146.934 182.869 151.226 184.46L160.225 187.782C160.777 182.077 161.83 176.431 163.37 170.91L137.189 161.113L135.975 170.844C134.088 185.962 131.816 199.282 123.121 209.242C120.558 212.088 117.664 214.617 114.5 216.776L120.672 223.628C121.91 222.714 123.091 221.726 124.209 220.668C132.149 212.876 138.78 201.672 141.273 190.224Z" fill="white"/>
<path d="M217.789 58.1342V47.567L200.607 47.4856C200.019 47.4855 199.436 47.6023 198.894 47.8291C198.351 48.056 197.859 48.3883 197.446 48.8069C197.033 49.2255 196.707 49.722 196.487 50.2675C196.268 50.813 196.159 51.3968 196.167 51.9848C203.65 52.8971 210.946 54.9719 217.789 58.1342Z" fill="white"/>
<path d="M182.58 171.991L198.986 178.133C202.935 179.623 206.433 182.108 209.139 185.348L232.397 168.557L232.449 156.577L223.613 166.071L201.524 155.962L213.364 140.423L232.478 149.169V144.604L215.925 137.033L223.384 127.28L232.567 128.945V123.077L221.674 121.36L182.58 171.991ZM220.631 169.275L211.751 178.792L191.534 169.038L198.934 159.359L220.631 169.275Z" fill="white"/>
<path d="M164.28 165.131L165.39 104.525L145.04 98.4199L137.929 155.282L164.28 165.131ZM149.243 108.625H160.513V147.142H149.221L149.243 108.625ZM144.522 145.262V152.773H141.703V145.262H144.522Z" fill="white"/>
<path d="M195.249 146.276L215.747 119.702L195.249 113.531V146.276Z" fill="white"/>
<path d="M223.428 73.7261V115.773L232.619 117.253V112.176L231.139 111.947C230.539 111.835 229.998 111.514 229.612 111.042C229.226 110.569 229.02 109.975 229.03 109.364V89.9025C229.012 89.4603 229.112 89.0213 229.32 88.6308C229.528 88.2402 229.836 87.9122 230.213 87.6807C230.59 87.4492 231.022 87.3225 231.465 87.3137C231.907 87.3049 232.344 87.4143 232.73 87.6307V80.8301C231.428 79.8533 230.14 78.8617 228.882 77.8701C227.062 76.4567 225.241 75.0581 223.428 73.7261Z" fill="white"/>
<path d="M167.011 219.78C159.933 224.022 153.415 229.133 147.608 234.994C144.648 237.954 141.888 241.07 138.95 243.956L144.589 250.216C146.505 248.499 148.437 246.686 150.39 244.851C157.05 238.569 164.376 231.716 173.167 227.01C170.791 224.896 168.719 222.463 167.011 219.78Z" fill="white"/>
<path d="M232.826 67.9098V61.9232C232.838 58.9787 231.94 56.1025 230.253 53.6887C228.567 51.2749 226.175 49.4418 223.406 48.4404V61.2498C226.721 63.307 229.814 65.601 232.826 67.9098Z" fill="white"/>
<path d="M162.645 188.7L197.832 201.694C200.747 202.723 200.488 207.141 197.469 207.777C187.551 209.871 178.015 213.486 169.201 218.492C170.967 221.231 173.149 223.678 175.669 225.744C178.903 224.204 182.302 223.035 185.799 222.259C190.336 221.284 195 221.034 199.615 221.519C204.714 217.648 208.186 212.015 209.353 205.72C209.405 205.439 209.45 205.15 209.494 204.869C210.168 200.441 209.312 195.916 207.066 192.041C204.82 188.166 201.32 185.173 197.143 183.557L165.76 171.798C164.209 177.326 163.166 182.983 162.645 188.7Z" fill="white"/>
<path d="M145.855 47.5525H145.484L145.848 47.6489L145.855 47.5525Z" fill="white"/>
<path d="M132.46 154.823L139.638 97.3987L110.578 95.5562L110.364 145.38L112.776 158.582L132.46 154.823ZM117.283 101.232L135.043 102.09L131.89 131.172H117.283V101.232ZM131.343 136.804V149.021H114.463V136.804H131.343Z" fill="white"/>
<path d="M184.075 61.42C180.9 61.2572 177.63 61.161 174.455 61.0722C166.522 60.8354 158.323 60.5986 150.198 59.2518L149.924 59.2L145.78 92.6258L217.812 114.323V69.9226C216.761 69.2788 215.695 68.672 214.6 68.1096C204.736 63.0554 193.14 61.8714 184.075 61.42ZM166.123 92.0412L152.211 87.9638L154.283 66.3706H166.123V92.0412ZM171.761 65.4011H183.971V78.551H171.761V65.4011ZM214.03 104.814L175.55 94.3352V87.949H189.61V73.889H214.03V104.814Z" fill="white"/>
<path d="M186.769 227.876C173.375 230.836 163.029 240.53 153.905 249.106C145.144 257.335 136.885 265.105 126.977 266.866C125.393 267.14 123.661 267.273 121.797 267.421C118.368 267.571 114.968 268.104 111.659 269.012C111.022 269.205 110.401 269.427 109.786 269.663V278.092C111.073 277.343 112.441 276.744 113.864 276.309C118.541 274.88 123.528 275.199 128.323 274.355C151.87 270.211 165.02 240.426 188.397 235.32C200.836 232.597 214.141 237.873 223.177 247.256C226.714 250.985 229.69 255.207 232.012 259.792L232.071 246.472C230.833 244.872 229.509 243.34 228.105 241.884C216.82 230.14 200.977 224.768 186.769 227.876Z" fill="white"/>
<path d="M119.073 205.35C121.237 202.83 123.022 200.008 124.372 196.973C122.281 196.61 120.304 195.767 118.594 194.51C116.885 193.253 115.491 191.616 114.522 189.729C113.461 187.44 112.75 185.006 112.413 182.506C111.412 176.66 110.868 170.744 110.785 164.813L110.267 164.916L110.06 212.95C113.379 210.814 116.408 208.26 119.073 205.35Z" fill="white"/>
<path d="M118.607 225.152L112.384 218.241L110.038 219.78L109.979 232.538C112.006 229.925 115.396 227.491 118.607 225.152Z" fill="white"/>
<path d="M215.199 201.946C215.198 203.227 215.102 204.505 214.911 205.772C214.859 206.12 214.8 206.475 214.733 206.823C213.609 212.791 210.803 218.313 206.645 222.74C216.362 225.283 225.179 230.482 232.108 237.755V231.45L224.62 226.1L230.022 211.914L232.19 212.824L232.279 192.104L215.118 199.963C215.17 200.621 215.199 201.28 215.199 201.946Z" fill="white"/>
<path d="M110.312 263.44C113.984 262.419 117.76 261.813 121.567 261.634C123.277 261.501 124.882 261.375 126.229 261.139C131.883 260.147 137.255 256.491 142.672 251.844L137.1 245.68C134.495 248.155 131.579 250.282 128.427 252.007C125.348 253.661 121.773 254.137 118.368 253.348C114.964 252.558 111.963 250.556 109.927 247.715L109.853 263.61C110.008 263.558 110.156 263.499 110.312 263.44Z" fill="white"/>
<path d="M144.537 58.0825C135.731 55.9735 128.257 52.5251 122.189 47.7817C117.912 48.3737 115.218 50.2163 113.531 52.3623C112.203 54.2537 111.322 56.4223 110.956 58.7041L116.343 59.0667V84.9667L110.608 84.6559V89.7619L140.363 91.6489L144.537 58.0825ZM121.034 85.1887V59.2887L138.691 60.4579L135.982 85.9953L121.034 85.1887Z" fill="white"/>
<path d="M192.4 112.68L167.817 105.28L166.707 166.063L176.986 169.911L192.4 149.931V112.68ZM173.641 157.472H169.882V146.202H173.641V157.472ZM179.28 157.472H175.521V146.202H179.28V157.472ZM184.911 157.472H181.152V146.202H184.911V157.472ZM171.761 134.932V111.992L188.7 117.423V134.932H171.761Z" fill="white"/>
<path d="M214.001 194.183L232.36 185.74L232.419 171.68L210.745 187.331C212.159 189.444 213.256 191.752 214.001 194.183Z" fill="white"/>
<path d="M149.939 59.2L150.213 59.2518C158.353 60.5986 166.537 60.8354 174.47 61.0722C177.63 61.161 180.9 61.2572 184.09 61.42C193.125 61.8862 204.751 63.0702 214.593 68.1318C215.688 68.6942 216.753 69.301 217.804 69.9448V58.1344C210.967 54.9743 203.68 52.8996 196.204 51.985V55.2336C196.214 55.8235 196.108 56.4096 195.889 56.9577C195.671 57.5058 195.346 58.0049 194.932 58.4259C194.519 58.8468 194.026 59.1812 193.482 59.4094C192.938 59.6376 192.354 59.7551 191.764 59.755L156.436 59.5996C155.249 59.5743 154.121 59.0795 153.298 58.2236C152.476 57.3678 152.026 56.2207 152.048 55.0338V52.022C152.014 51.0334 151.721 50.0711 151.197 49.2322L149.939 59.2Z" fill="#F5F5F5"/>
<path d="M223.428 73.7262C225.241 75.0582 227.062 76.4568 228.919 77.885C230.177 78.8618 231.465 79.8534 232.767 80.845L232.826 67.9246C229.814 65.6158 226.721 63.3218 223.428 61.2646V73.7262Z" fill="#F5F5F5"/>
<path d="M145.847 47.6486L145.484 47.5524L145.336 47.5154L141.31 47.5672H125.386C124.316 47.5591 123.248 47.6309 122.189 47.7818C128.249 52.5252 135.731 55.9736 144.537 58.0826L145.847 47.6486Z" fill="#E0E0E0"/>
<path d="M188.397 235.32C165.035 240.434 151.87 270.219 128.323 274.34C123.528 275.184 118.541 274.866 113.864 276.294C112.441 276.73 111.073 277.328 109.786 278.077L109.735 290.606C109.721 294.395 111.212 298.036 113.88 300.727C116.548 303.419 120.175 304.942 123.965 304.962L217.516 305.391C219.393 305.4 221.255 305.04 222.993 304.33C224.731 303.62 226.313 302.574 227.647 301.253C228.981 299.931 230.041 298.359 230.767 296.628C231.493 294.896 231.871 293.038 231.879 291.161L232.012 259.792C229.69 255.207 226.714 250.985 223.177 247.256C214.141 237.866 200.836 232.59 188.397 235.32Z" fill="white"/>
<path d="M128.427 252C131.579 250.277 134.494 248.153 137.1 245.68L118.6 225.16C115.388 227.498 111.999 229.933 109.971 232.56L109.912 247.715C111.95 250.558 114.954 252.561 118.361 253.35C121.769 254.139 125.348 253.659 128.427 252Z" fill="#F5F5F5"/>
<path d="M160.869 203.989C160.647 202.805 160.447 201.606 160.306 200.385C159.863 196.204 159.836 191.99 160.225 187.805L151.226 184.482C146.934 182.891 142.287 185.592 141.273 190.247C138.78 201.695 132.149 212.898 124.209 220.69C123.091 221.748 121.91 222.737 120.672 223.65L129.456 233.404L160.869 203.989Z" fill="#F5F5F5"/>
<path d="M147.608 234.957C153.417 229.109 159.936 224.01 167.011 219.78C164.497 215.822 162.638 211.484 161.505 206.934L131.165 235.32L138.942 243.956C141.888 241.033 144.67 237.917 147.608 234.957Z" fill="#F5F5F5"/>
<path d="M197.832 201.672L162.645 188.7C162.326 192.494 162.373 196.311 162.785 200.096C163.472 206.642 165.668 212.939 169.201 218.492C178.015 213.486 187.551 209.871 197.469 207.777C200.488 207.119 200.747 202.701 197.832 201.672Z" fill="#F5F5F5"/>
<path d="M121.212 166.559C119.184 166.929 117.024 167.987 116.343 170.022C116.034 171.316 116.047 172.665 116.38 173.952L117.445 179.983C117.622 181.672 118.125 183.31 118.925 184.808C119.836 186.221 121.493 187.257 123.069 186.843C123.657 186.645 124.192 186.318 124.635 185.885C125.079 185.451 125.419 184.924 125.63 184.341C126.067 183.152 126.329 181.906 126.407 180.641L127.739 168.52L127.865 167.403L127.243 165.494C125.356 166.271 123.232 166.189 121.212 166.559Z" fill="#F5F5F5"/>
<path d="M229.06 89.9024V109.342C229.049 109.953 229.255 110.547 229.642 111.02C230.028 111.492 230.569 111.813 231.169 111.925L232.649 112.154L232.752 87.6306C232.366 87.4162 231.931 87.3082 231.489 87.318C231.048 87.3277 230.617 87.4548 230.241 87.6861C229.865 87.9174 229.558 88.2446 229.35 88.6341C229.142 89.0236 229.042 89.4614 229.06 89.9024Z" fill="#F5F5F5"/>
<path d="M201.524 155.962L223.621 166.071L232.449 156.577L232.478 149.162L213.364 140.415L201.524 155.962Z" fill="#E6E6E6"/>
<path d="M215.947 137.026L232.501 144.596L232.567 128.923L223.384 127.258L215.947 137.026Z" fill="#E6E6E6"/>
<path d="M217.789 69.93V114.33L145.78 92.6258L149.939 59.2L151.182 49.247C150.791 48.6685 150.255 48.2028 149.628 47.8964C149.001 47.5899 148.304 47.4534 147.608 47.5006H145.861V47.6412L144.552 58.0752L140.356 91.6638L110.6 89.7768V95.5488L139.66 97.3914L132.482 154.815L112.798 158.575L110.386 145.373L110.26 158.974V159.048V164.916L110.778 164.813C110.861 170.744 111.405 176.66 112.406 182.506C112.743 185.006 113.454 187.44 114.515 189.729C115.484 191.616 116.878 193.253 118.587 194.51C120.296 195.767 122.274 196.61 124.364 196.973C123.015 200.008 121.23 202.83 119.066 205.35C116.401 208.26 113.371 210.814 110.053 212.95V219.795L112.399 218.241L118.622 225.152L137.122 245.673L142.694 251.859C137.277 256.506 131.905 260.162 126.251 261.153C124.905 261.39 123.291 261.516 121.589 261.649C117.775 261.821 113.992 262.422 110.312 263.44C110.156 263.484 110.008 263.544 109.853 263.595V269.634C110.467 269.397 111.089 269.175 111.725 268.983C115.034 268.075 118.435 267.541 121.863 267.392C123.691 267.244 125.423 267.11 127.043 266.837C136.944 265.098 145.21 257.328 153.972 249.077C163.096 240.5 173.441 230.776 186.835 227.846C201.043 224.738 216.879 230.066 228.172 241.825C229.576 243.281 230.9 244.812 232.138 246.413L232.175 237.718C225.223 230.448 216.382 225.261 206.645 222.74C210.801 218.315 213.607 212.795 214.733 206.83C214.8 206.482 214.859 206.127 214.911 205.779C215.102 204.513 215.198 203.234 215.199 201.953C215.199 201.287 215.199 200.629 215.118 199.97L232.301 192.074V185.777L213.978 194.191C213.217 191.778 212.108 189.49 210.685 187.398L232.36 171.739V168.557L209.102 185.348C206.396 182.108 202.898 179.623 198.949 178.133L182.543 171.991L221.674 121.36L232.589 123.092V117.268L223.399 115.788V48.4478C221.858 47.8811 220.23 47.5857 218.589 47.5746H217.76V69.93H217.789ZM215.747 119.702L195.249 146.276V113.531L215.747 119.702ZM165.368 104.525L164.258 165.131L137.921 155.267L145.04 98.42L165.368 104.525ZM116.72 188.485C115.788 186.44 115.164 184.268 114.87 182.04C113.863 176.192 113.331 170.273 113.279 164.339L131.72 160.817L130.558 170.096C129.433 179.087 128.175 187.383 125.445 194.472C123.607 194.279 121.847 193.631 120.323 192.585C118.8 191.54 117.561 190.131 116.72 188.485ZM114.5 216.776C117.664 214.617 120.558 212.088 123.121 209.242C131.816 199.282 134.088 185.962 135.975 170.844L137.189 161.113L163.37 170.94C161.83 176.461 160.777 182.107 160.225 187.812C159.836 191.998 159.863 196.212 160.306 200.392C160.447 201.613 160.647 202.812 160.869 203.996L129.456 233.389L120.672 223.628L114.5 216.776ZM150.39 244.814C148.437 246.649 146.505 248.462 144.589 250.179L138.95 243.919L131.172 235.32L161.512 206.934C162.643 211.483 164.499 215.821 167.011 219.78C168.719 222.463 170.791 224.896 173.167 227.01C164.376 231.679 157.072 238.532 150.39 244.814ZM209.494 204.854C209.45 205.135 209.405 205.424 209.353 205.705C208.176 211.984 204.705 217.6 199.615 221.46C195 220.975 190.336 221.224 185.799 222.2C182.301 222.98 178.902 224.154 175.669 225.7C173.149 223.633 170.967 221.187 169.201 218.448C165.677 212.9 163.486 206.611 162.8 200.074C162.388 196.288 162.341 192.472 162.659 188.678C163.177 182.969 164.215 177.319 165.76 171.798L197.173 183.564C201.344 185.186 204.838 188.181 207.078 192.056C209.318 195.93 210.17 200.452 209.494 204.876V204.854ZM166.737 166.056L167.847 105.272L192.43 112.672V149.924L177.015 169.904L166.737 166.056Z" fill="#E0E0E0"/>
<path d="M135.043 102.09L117.283 101.232V131.172H131.883L135.043 102.09Z" fill="#EBEBEB"/>
<path d="M131.372 136.804H114.463V149.014H131.372V136.804Z" fill="#EBEBEB"/>
<path d="M189.61 87.9639H175.521V94.3501L214.03 104.828V73.8743H189.61V87.9639Z" fill="#EBEBEB"/>
<path d="M152.211 87.9489L166.13 92.0263V66.3557H154.283L152.211 87.9489Z" fill="#EBEBEB"/>
<path d="M183.971 65.416H171.761V78.5658H183.971V65.416Z" fill="#E0E0E0"/>
<path d="M191.564 169.038L211.781 178.791L220.631 169.275L198.942 159.352L191.564 169.038Z" fill="#E6E6E6"/>
<path d="M160.491 108.625H149.221V147.134H160.491V108.625Z" fill="#EBEBEB"/>
<path d="M144.522 145.262H141.703V152.78H144.522V145.262Z" fill="#E0E0E0"/>
<path d="M171.761 112.014V131.653V134.931H188.67V117.423L171.761 112.014Z" fill="#EBEBEB"/>
<path d="M173.641 146.202H169.882V157.472H173.641V146.202Z" fill="#EBEBEB"/>
<path d="M179.28 146.202H175.521V157.472H179.28V146.202Z" fill="#EBEBEB"/>
<path d="M184.911 146.202H181.152V157.472H184.911V146.202Z" fill="#EBEBEB"/>
<path d="M116.343 59.0667L110.956 58.7041H110.889C110.73 59.6399 110.668 60.5897 110.704 61.5383L110.608 84.6781L116.343 84.9889V59.0667Z" fill="#E6E6E6"/>
<path d="M121.034 59.3035V85.1887L135.982 86.0101L138.691 60.4727L121.034 59.3035Z" fill="#E6E6E6"/>
<path d="M224.642 226.092L232.131 231.442L232.212 212.816L230.044 211.906L224.642 226.092Z" fill="#F0F0F0"/>
<path d="M281.407 130.196C277.951 125.119 275.613 122.596 270.648 120.798C268.745 120.115 266.748 119.733 264.728 119.666C259.977 121.146 256.699 121.146 251.94 119.666C249.506 119.969 247.426 118.186 234.994 125.904C229.866 129.086 226.344 131.187 220.254 134.325C218.589 135.065 217.412 135.546 217.153 135.391C216.028 134.717 203.766 112.28 203.766 112.28C203.766 112.28 201.036 104.525 199.889 104.577C198.742 104.629 190.602 104.873 190.476 106.146C190.35 107.419 190.853 113.02 191.741 113.783C192.629 114.545 195.834 116.587 195.834 116.587C195.834 116.587 209.435 151.752 214.459 151.249C218.159 150.886 232.308 144.996 239.664 141.866L241.292 141.281L242.261 161.668L241.869 187.361L273.933 185.54L273.415 159.1C273.659 152.514 273.489 150.39 274.155 144.929L283.775 148.585L285.485 137.736C284.325 135.12 282.961 132.599 281.407 130.196Z" fill="#F6DAD6"/>
<path d="M194.87 99.126C193.034 94.686 185.664 95.5074 185.043 100.184C184.177 106.733 196.823 111.913 196.823 111.913V111.469C196.823 111.469 196.29 102.567 194.87 99.126ZM192.901 102.885C192.691 103.375 192.341 103.791 191.894 104.082C191.448 104.372 190.925 104.523 190.392 104.517C189.859 104.51 189.341 104.346 188.901 104.044C188.462 103.743 188.122 103.318 187.925 102.823C187.727 102.328 187.68 101.786 187.791 101.265C187.901 100.744 188.164 100.267 188.545 99.8949C188.927 99.523 189.41 99.2725 189.934 99.1752C190.457 99.0778 190.998 99.138 191.488 99.348C192.144 99.6297 192.662 100.161 192.927 100.824C193.192 101.487 193.183 102.229 192.901 102.885Z" fill="#F05C44"/>
<path d="M192.992 110.112C193.432 110.3 193.843 110.549 194.213 110.852L195.478 111.755C195.715 111.932 195.959 112.103 196.218 112.31C196.371 112.425 196.498 112.569 196.593 112.735C196.689 112.9 196.75 113.083 196.773 113.272C196.781 113.451 196.733 113.628 196.636 113.779C196.54 113.93 196.399 114.047 196.233 114.115C195.949 114.234 195.631 114.247 195.338 114.152C194.892 113.986 194.461 113.78 194.05 113.538C193.31 113.153 192.785 112.85 192.57 112.702L192.637 112.635C192.674 112.739 192.681 112.791 192.674 112.798C192.666 112.806 192.622 112.798 192.555 112.68L192.474 112.576L192.615 112.613C192.866 112.695 193.421 112.924 194.183 113.272C194.59 113.474 195.007 113.652 195.434 113.805C195.848 113.945 196.426 113.738 196.389 113.294C196.352 112.85 195.693 112.413 195.264 112.036L194.05 111.074C193.66 110.797 193.305 110.474 192.992 110.112Z" fill="#E8C3BE"/>
<path d="M193.995 108C194.484 108.102 194.951 108.292 195.371 108.562C195.855 108.822 196.293 109.159 196.666 109.561C196.894 109.802 197.084 110.077 197.229 110.375C197.327 110.543 197.392 110.729 197.418 110.922C197.445 111.115 197.433 111.312 197.384 111.5C197.344 111.605 197.282 111.701 197.203 111.781C197.124 111.862 197.03 111.925 196.925 111.966C196.742 112.037 196.543 112.063 196.348 112.04C196.017 111.995 195.695 111.897 195.393 111.752C194.892 111.534 194.421 111.251 193.995 110.908C193.255 110.324 192.966 109.828 193.003 109.798C193.04 109.769 193.425 110.183 194.158 110.694C194.591 110.985 195.052 111.233 195.534 111.434C195.803 111.552 196.087 111.632 196.378 111.67C196.674 111.67 196.94 111.611 197.021 111.374C197.084 111.091 197.036 110.795 196.888 110.546C196.763 110.276 196.599 110.026 196.4 109.806C196.062 109.416 195.668 109.08 195.231 108.807C194.795 108.575 194.382 108.305 193.995 108Z" fill="#E8C3BE"/>
<path d="M199.867 104.962L193.48 106.841C193.185 106.891 192.92 107.053 192.74 107.293C192.504 107.737 192.925 108.262 193.362 108.514C194.312 109.029 195.397 109.238 196.47 109.113C197.535 108.97 198.584 108.722 199.6 108.373" fill="#F6DAD6"/>
<path d="M199.593 108.403C199.419 108.512 199.229 108.595 199.03 108.647C198.504 108.833 197.968 108.988 197.425 109.113C196.605 109.305 195.758 109.35 194.923 109.246C194.425 109.175 193.94 109.025 193.488 108.802C193.229 108.688 192.998 108.522 192.807 108.314C192.691 108.202 192.602 108.065 192.546 107.914C192.49 107.763 192.468 107.601 192.481 107.441C192.521 107.28 192.602 107.131 192.716 107.011C192.831 106.89 192.974 106.801 193.133 106.752C193.399 106.656 193.643 106.597 193.873 106.523L195.264 106.123L197.639 105.472C198.363 105.238 199.106 105.068 199.859 104.962C199.17 105.265 198.457 105.512 197.728 105.702L195.375 106.442L193.984 106.863C193.517 107.019 192.903 107.108 192.859 107.485C192.857 107.587 192.877 107.689 192.916 107.783C192.956 107.877 193.014 107.962 193.088 108.033C193.247 108.205 193.438 108.343 193.651 108.44C194.065 108.651 194.509 108.796 194.968 108.869C195.764 108.986 196.574 108.971 197.365 108.824C198.734 108.595 199.571 108.336 199.593 108.403Z" fill="#E8C3BE"/>
<path d="M285.27 226.351C287.954 226.531 290.633 225.945 292.996 224.66C295.359 223.375 297.307 221.445 298.615 219.095C299.923 216.745 300.536 214.071 300.382 211.386C300.228 208.701 299.314 206.115 297.746 203.929C295.741 201.125 292.788 199.156 289.91 197.269L279.55 190.439L282.71 217.22L285.24 226.366" fill="#F05C44"/>
<path d="M299.981 208.621C299.853 208.887 299.663 209.118 299.426 209.294C298.802 209.812 298.06 210.168 297.265 210.33C295.267 210.804 292.337 210.389 289.614 208.917C287.325 207.619 285.263 205.957 283.509 203.996C282.821 203.256 282.288 202.656 281.925 202.227C281.722 202.017 281.541 201.786 281.385 201.539C281.623 201.71 281.839 201.909 282.029 202.131L283.701 203.803C285.489 205.681 287.541 207.289 289.791 208.576C292.031 209.864 294.629 210.383 297.191 210.056C297.957 209.927 298.683 209.626 299.315 209.176C299.767 208.85 299.959 208.599 299.981 208.621Z" fill="#263238"/>
<path d="M273.437 160.181L274.177 144.914C274.177 144.914 268.931 140.526 270.648 120.798L268.124 120.058C268.124 120.058 266.57 144.892 253.975 143.804C241.381 142.717 245.835 120.398 245.835 120.398C244.45 120.473 243.132 121.019 242.098 121.945C242.002 121.989 241.543 130.085 241.292 136.974C239.909 139.412 239.219 142.18 239.294 144.981C239.424 147.115 240.245 149.149 241.632 150.775C241.973 155.445 242.313 161.646 242.313 161.646L237.407 174.344L238.583 178.821L274.57 178.422L275.635 173.634L273.437 160.181Z" fill="#455A64"/>
<path d="M268.013 143.049C267.895 143.587 267.66 144.093 267.325 144.529C266.851 145.269 266.393 145.869 266.304 145.817C266.215 145.765 266.518 145.077 266.992 144.337C267.466 143.597 267.924 142.99 268.013 143.049Z" fill="white"/>
<path d="M269.523 155.889C269.441 155.963 268.783 155.385 267.976 154.594C267.46 154.156 267.028 153.626 266.703 153.032C266.785 152.951 267.443 153.535 268.25 154.32C268.768 154.76 269.199 155.292 269.523 155.889Z" fill="white"/>
<path d="M248.729 146.246C247.645 147.252 246.393 148.058 245.029 148.629C246.113 147.624 247.365 146.817 248.729 146.246Z" fill="white"/>
<path d="M243.06 145.336C242.465 145.212 241.905 144.96 241.418 144.596C240.559 144.1 239.938 143.627 239.938 143.538C240.532 143.663 241.093 143.916 241.58 144.278C242.461 144.774 243.112 145.247 243.06 145.336Z" fill="white"/>
<path d="M243.186 129.922C243.342 130.594 243.377 131.288 243.29 131.972C243.32 132.659 243.224 133.346 243.009 133.999C242.843 133.332 242.808 132.638 242.905 131.957C242.868 131.267 242.963 130.576 243.186 129.922Z" fill="white"/>
<path d="M269.316 132.608C269.412 132.66 269.219 133.23 268.894 133.888C268.568 134.547 268.22 135.043 268.154 134.998C268.087 134.954 268.25 134.377 268.576 133.718C268.901 133.06 269.219 132.564 269.316 132.608Z" fill="white"/>
<path d="M256.166 152.707C255.741 151.669 255.561 150.547 255.64 149.428C256.064 150.467 256.244 151.588 256.166 152.707Z" fill="white"/>
<path d="M264.343 142.657C264.387 142.754 264.047 143.013 263.603 143.227C263.159 143.442 262.722 143.553 262.678 143.457C262.633 143.36 262.974 143.101 263.418 142.879C263.862 142.657 264.298 142.561 264.343 142.657Z" fill="white"/>
<path d="M273.186 148.4C273.223 148.496 272.845 148.71 272.35 148.866C271.854 149.021 271.425 149.073 271.388 148.977C271.351 148.881 271.735 148.659 272.231 148.503C272.727 148.348 273.156 148.296 273.186 148.4Z" fill="white"/>
<path d="M246.42 142.472C246.331 142.524 245.917 141.999 245.495 141.288C245.073 140.578 244.807 139.956 244.896 139.905C244.984 139.853 245.406 140.378 245.828 141.089C246.25 141.799 246.501 142.421 246.42 142.472Z" fill="white"/>
<path d="M246.931 153.498C246.834 153.543 246.649 153.313 246.42 153.069C246.191 152.825 245.983 152.603 246.035 152.507C246.087 152.411 246.427 152.507 246.701 152.81C246.975 153.114 247.034 153.469 246.931 153.498Z" fill="white"/>
<path d="M242.328 171.103C242.257 170.57 242.313 170.027 242.491 169.519C242.69 168.668 242.935 168.002 243.038 168.039C243.109 168.573 243.05 169.116 242.868 169.623C242.676 170.459 242.431 171.125 242.328 171.103Z" fill="white"/>
<path d="M250.053 171.377C249.979 171.443 249.41 170.962 248.788 170.289C248.166 169.616 247.73 169.009 247.811 168.942C247.893 168.876 248.455 169.357 249.077 170.03C249.698 170.703 250.12 171.303 250.053 171.377Z" fill="white"/>
<path d="M246.531 175.498C246.531 175.602 245.872 175.499 245.132 175.21C244.392 174.921 243.83 174.655 243.867 174.551C243.904 174.448 244.526 174.551 245.266 174.847C246.006 175.143 246.568 175.38 246.531 175.498Z" fill="white"/>
<path d="M256.625 170.237C256.57 170.787 256.387 171.317 256.092 171.784C255.7 172.59 255.3 173.205 255.204 173.16C255.264 172.61 255.448 172.081 255.744 171.614C256.136 170.807 256.528 170.2 256.625 170.237Z" fill="white"/>
<path d="M265.297 172.198C265.022 172.936 264.499 173.556 263.817 173.952C263.209 174.443 262.446 174.705 261.664 174.692C261.664 174.581 262.604 174.3 263.603 173.604C264.602 172.908 265.201 172.139 265.297 172.198Z" fill="white"/>
<path d="M272.372 174.64C271.567 174.237 270.82 173.727 270.152 173.123C269.401 172.613 268.726 172.001 268.146 171.303C268.952 171.691 269.699 172.189 270.366 172.783C271.123 173.299 271.799 173.925 272.372 174.64Z" fill="white"/>
<path d="M261.272 162.43C260.783 163.086 260.197 163.662 259.533 164.14C258.953 164.716 258.283 165.193 257.55 165.553C258.038 164.897 258.625 164.321 259.289 163.844C259.868 163.268 260.538 162.79 261.272 162.43Z" fill="white"/>
<path d="M250.534 162.8C249.912 162.405 249.364 161.904 248.914 161.32C248.369 160.837 247.916 160.261 247.574 159.618C248.193 160 248.741 160.485 249.195 161.054C249.739 161.555 250.192 162.145 250.534 162.8Z" fill="white"/>
<path d="M260.717 157.62C260.139 157.982 259.499 158.232 258.83 158.36C258.192 158.606 257.515 158.734 256.832 158.738C258.043 158.119 259.362 157.737 260.717 157.613V157.62Z" fill="white"/>
<path d="M270.1 164.28C269.629 163.766 269.257 163.169 269.005 162.519C268.643 161.925 268.393 161.271 268.265 160.587C268.736 161.101 269.107 161.699 269.36 162.349C269.721 162.942 269.972 163.597 270.1 164.28Z" fill="white"/>
<path d="M243.667 160.38C243.789 161.028 243.789 161.693 243.667 162.341C243.665 163.001 243.537 163.654 243.29 164.265C243.159 163.618 243.159 162.951 243.29 162.304C243.288 161.644 243.416 160.991 243.667 160.38Z" fill="white"/>
<path d="M244.822 105.117C242.996 105.396 241.132 105.298 239.346 104.829C238.464 104.582 237.646 104.146 236.951 103.55C236.255 102.955 235.699 102.214 235.32 101.38C234.962 100.53 234.9 99.5852 235.143 98.6958C235.386 97.8064 235.92 97.0241 236.659 96.4739C237.399 96.0003 238.369 95.7339 238.709 94.9273C239.05 94.1207 238.435 93.0773 238.006 92.1967C237.439 91.0221 237.263 89.6968 237.504 88.4149C237.745 87.133 238.39 85.9619 239.345 85.0733C240.3 84.1847 241.514 83.6253 242.81 83.4769C244.106 83.3286 245.415 83.5992 246.546 84.2491C246.719 82.218 247.64 80.3235 249.13 78.9319C250.62 77.5404 252.572 76.7508 254.611 76.7158C256.649 76.6808 258.628 77.403 260.164 78.7426C261.701 80.0821 262.686 81.944 262.929 83.9679C263.07 85.1445 262.974 86.4099 263.573 87.4385C264.254 88.6077 265.653 89.1405 266.6 90.1099C268.442 91.9969 268.191 95.0901 267.34 97.5913C266.489 100.093 265.164 102.535 265.246 105.176" fill="#263238"/>
<path d="M251.859 119.806C251.681 117.194 251.482 114.811 251.482 114.811C251.482 114.811 246.05 114.375 245.562 109.002C245.073 103.63 245.132 91.2421 245.132 91.2421L254.886 86.1731L264.735 94.1503L264.913 119.31C264.926 120.974 264.306 122.58 263.177 123.802C262.048 125.024 260.497 125.77 258.837 125.889C257.105 126.007 255.398 125.432 254.089 124.292C252.781 123.151 251.979 121.538 251.859 119.806Z" fill="#F6DAD6"/>
<path d="M246.457 100.24C246.467 100.374 246.516 100.503 246.598 100.609C246.681 100.715 246.792 100.795 246.919 100.839C247.046 100.883 247.184 100.888 247.314 100.855C247.444 100.822 247.562 100.751 247.652 100.652C247.743 100.552 247.802 100.428 247.823 100.296C247.844 100.163 247.826 100.027 247.77 99.9043C247.715 99.7819 247.624 99.6784 247.511 99.6066C247.397 99.5348 247.265 99.4979 247.13 99.5004C247.037 99.5021 246.944 99.523 246.859 99.5616C246.774 99.6003 246.697 99.656 246.634 99.7253C246.571 99.7945 246.523 99.876 246.492 99.9645C246.462 100.053 246.45 100.147 246.457 100.24Z" fill="#263238"/>
<path d="M245.776 99.508C245.865 99.5968 246.361 99.1528 247.101 99.0936C247.841 99.0344 248.411 99.3822 248.485 99.2786C248.559 99.175 248.425 99.0714 248.174 98.9086C247.84 98.707 247.452 98.6163 247.063 98.6495C246.675 98.6828 246.307 98.8383 246.013 99.0936C245.798 99.2934 245.732 99.471 245.776 99.508Z" fill="#263238"/>
<path d="M254.434 100.048C254.435 100.139 254.454 100.228 254.49 100.312C254.526 100.395 254.579 100.47 254.644 100.533C254.709 100.595 254.787 100.644 254.872 100.677C254.956 100.709 255.047 100.724 255.137 100.721C255.32 100.721 255.495 100.649 255.624 100.52C255.753 100.391 255.825 100.216 255.825 100.033C255.825 99.8508 255.753 99.6757 255.624 99.5467C255.495 99.4176 255.32 99.3451 255.137 99.3451C255.044 99.342 254.951 99.3581 254.865 99.3923C254.778 99.4265 254.699 99.4782 254.633 99.5441C254.567 99.61 254.516 99.6888 254.481 99.7755C254.447 99.8622 254.431 99.9549 254.434 100.048Z" fill="#263238"/>
<path d="M253.983 99.3081C254.079 99.3969 254.575 98.953 255.315 98.8938C256.055 98.8346 256.617 99.1824 256.691 99.0788C256.765 98.9752 256.632 98.8716 256.388 98.7088C256.064 98.5024 255.684 98.4015 255.3 98.4202C254.91 98.4469 254.54 98.6032 254.249 98.8642C254.012 99.0936 253.938 99.2711 253.983 99.3081Z" fill="#263238"/>
<path d="M251.467 105.628C251.066 105.716 250.655 105.748 250.246 105.724C250.138 105.742 250.028 105.742 249.92 105.724C249.85 105.706 249.784 105.672 249.728 105.626C249.672 105.58 249.626 105.523 249.595 105.458C249.524 105.198 249.543 104.922 249.646 104.673C249.794 104.185 249.942 103.667 250.098 103.119C250.439 101.774 250.885 100.458 251.43 99.1824C251.187 100.55 250.843 101.898 250.401 103.215C250.238 103.756 250.083 104.266 249.928 104.762C249.843 104.947 249.812 105.152 249.839 105.354C249.876 105.487 250.061 105.509 250.246 105.517C250.656 105.505 251.066 105.543 251.467 105.628Z" fill="#263238"/>
<path d="M254.027 106.235C254.079 106.175 251.889 107.559 250.379 107.596C250.658 107.966 251.055 108.23 251.504 108.346C251.953 108.461 252.427 108.421 252.851 108.232C253.262 108.108 253.611 107.834 253.829 107.463C254.048 107.093 254.118 106.654 254.027 106.235Z" fill="white"/>
<path d="M251.482 114.811C254.035 114.645 256.487 113.751 258.549 112.236C258.549 112.236 257.032 116.225 251.637 116.128L251.482 114.811Z" fill="#E8C3BE"/>
<path d="M242.72 92.8552C244.407 94.424 247.056 94.646 249.217 93.8468C251.366 92.9385 253.216 91.4465 254.56 89.54C255.499 90.4572 256.652 91.1251 257.915 91.4831C259.177 91.8411 260.509 91.8778 261.79 91.5898C262.175 96.4812 263.026 99.4708 264.861 104.377C264.861 104.377 264.432 106.516 265.083 106.22C265.712 102.83 266.311 99.2192 266.94 95.8596C267.162 94.6312 267.384 93.314 266.896 92.1596C266.407 91.0052 265.149 90.169 264.069 89.3772C262.73 88.393 261.501 87.2534 260.14 86.3062C258.808 85.2911 257.229 84.6522 255.566 84.4562C253.867 84.4479 252.183 84.7826 250.616 85.4404C248.753 85.9596 246.998 86.8093 245.436 87.949C243.956 89.1774 242.905 91.131 243.29 93.018" fill="#263238"/>
<path d="M264.765 99.2563C265.305 99.0034 265.887 98.848 266.481 98.7975C266.782 98.7783 267.083 98.8362 267.354 98.9658C267.626 99.0953 267.861 99.2921 268.035 99.5375C268.256 99.9292 268.312 100.392 268.191 100.825C268.106 101.174 267.944 101.5 267.717 101.779C267.49 102.058 267.204 102.283 266.88 102.437C266.555 102.592 266.2 102.672 265.841 102.672C265.481 102.673 265.126 102.593 264.802 102.438" fill="#F6DAD6"/>
<path d="M257.106 97.9465C257.187 97.9465 257.246 98.3165 256.95 98.6273C256.654 98.9382 256.269 98.8938 256.277 98.805C256.284 98.7162 256.521 98.6273 256.721 98.4053C256.921 98.1833 257.009 97.9465 257.106 97.9465Z" fill="#263238"/>
<path d="M237.925 183.52L228.616 323.883C227.927 324.009 219.195 325.667 219.425 326.939C219.654 328.212 241.795 327.472 241.795 327.472L254.819 205.498L275.087 181.574L237.925 183.52Z" fill="#F6DAD6"/>
<path d="M241.558 326.407C241.558 326.621 236.467 326.754 230.192 326.703C223.917 326.651 218.818 326.436 218.825 326.222C218.833 326.007 223.917 325.881 230.192 325.933C236.467 325.985 241.558 326.192 241.558 326.407Z" fill="#263238"/>
<path d="M226.248 326.643C226.137 326.643 225.959 325.8 225.33 324.964C224.701 324.127 223.946 323.691 223.998 323.587C224.651 323.784 225.222 324.19 225.623 324.742C226.023 325.293 226.233 325.961 226.218 326.643H226.248Z" fill="#263238"/>
<path d="M241.98 322.744C238.078 322.616 234.252 323.845 231.154 326.222C231.51 325.766 231.94 325.373 232.427 325.06C233.554 324.243 234.802 323.609 236.127 323.18C237.457 322.748 238.849 322.533 240.248 322.544C240.833 322.514 241.418 322.582 241.98 322.744Z" fill="#263238"/>
<path d="M242.054 321.212C239.774 321.339 237.489 321.339 235.209 321.212C232.925 321.216 230.642 321.092 228.371 320.842C230.651 320.712 232.937 320.712 235.216 320.842C237.501 320.84 239.783 320.963 242.054 321.212Z" fill="#263238"/>
<path d="M242.195 318.785C239.902 319.035 237.597 319.159 235.29 319.155C232.986 319.289 230.676 319.289 228.371 319.155C230.665 318.908 232.969 318.785 235.276 318.785C237.58 318.659 239.89 318.659 242.195 318.785Z" fill="#263238"/>
<path d="M219.04 326.266C218.953 326.48 218.952 326.718 219.037 326.933C219.123 327.147 219.288 327.319 219.499 327.413C219.939 327.569 220.42 327.569 220.86 327.413C221.298 327.266 221.754 327.176 222.215 327.147C223.169 327.147 224.042 327.887 224.99 327.761C225.559 327.694 226.063 327.324 226.625 327.236C227.624 327.088 228.564 327.828 229.585 327.82C230.606 327.813 231.531 327.08 232.545 327.139C233.559 327.199 234.254 327.961 235.179 327.976C235.919 327.976 236.571 327.539 237.296 327.509C238.287 327.472 239.22 328.205 240.197 328.02C240.392 327.985 240.578 327.906 240.739 327.789C240.901 327.673 241.034 327.521 241.129 327.347C241.22 327.168 241.255 326.967 241.228 326.768C241.202 326.57 241.116 326.385 240.981 326.237" fill="#263238"/>
<path d="M238.635 319.051C238.635 319.088 238.191 318.896 237.673 318.348C237.366 318.02 237.141 317.625 237.015 317.194C236.943 316.931 236.913 316.659 236.926 316.387C236.928 316.224 236.963 316.064 237.031 315.916C237.098 315.768 237.196 315.636 237.318 315.529C237.4 315.471 237.495 315.434 237.595 315.423C237.694 315.411 237.795 315.425 237.888 315.462C238.039 315.527 238.171 315.629 238.273 315.758C238.439 315.983 238.569 316.233 238.657 316.498C238.814 316.918 238.87 317.369 238.82 317.815C238.717 318.555 238.391 318.955 238.361 318.925C238.332 318.896 238.524 318.496 238.546 317.8C238.556 317.398 238.483 316.997 238.332 316.624C238.241 316.411 238.121 316.212 237.977 316.032C237.829 315.854 237.658 315.773 237.54 315.876C237.39 316.031 237.305 316.238 237.303 316.454C237.287 316.682 237.304 316.911 237.355 317.134C237.455 317.524 237.634 317.889 237.88 318.207C238.28 318.725 238.68 318.999 238.635 319.051Z" fill="#263238"/>
<path d="M238.62 318.6C238.576 318.6 238.532 318.215 238.835 317.697C239.019 317.395 239.273 317.141 239.575 316.957C239.759 316.855 239.956 316.778 240.16 316.728C240.304 316.692 240.457 316.71 240.589 316.779C240.665 316.828 240.723 316.899 240.756 316.983C240.79 317.066 240.796 317.158 240.774 317.246C240.724 317.639 240.556 318.007 240.292 318.302C240.027 318.597 239.679 318.804 239.294 318.896C238.702 319.022 238.354 318.844 238.369 318.807C238.384 318.77 238.731 318.807 239.22 318.637C239.529 318.527 239.802 318.334 240.009 318.08C240.217 317.825 240.351 317.519 240.396 317.194C240.396 317.098 240.396 317.105 240.396 317.105C240.343 317.091 240.287 317.091 240.234 317.105C239.767 317.201 239.351 317.464 239.064 317.845C238.739 318.267 238.68 318.607 238.62 318.6Z" fill="#263238"/>
<path d="M285.411 318.873L285.218 318.925L279.135 269.811L273.386 183.971L256.625 199.83C256.21 200.607 261.886 269.042 263.092 273.83C264.232 278.329 271.328 317.26 272.187 321.967C271.188 322.47 263.699 326.266 264.254 327.391C264.809 328.516 285.914 321.767 285.914 321.767L285.411 318.873Z" fill="#F6DAD6"/>
<path d="M286.01 321.9C286.069 322.107 281.207 323.632 275.154 325.304C269.101 326.977 264.15 328.168 264.091 327.961C264.032 327.754 268.901 326.237 274.954 324.557C281.008 322.877 285.958 321.663 286.01 321.9Z" fill="#263238"/>
<path d="M271.358 326.296C271.255 326.34 270.84 325.556 270.011 324.927C269.182 324.298 268.331 324.083 268.354 323.965C269.041 323.971 269.707 324.202 270.249 324.623C270.792 325.044 271.182 325.632 271.358 326.296Z" fill="#263238"/>
<path d="M285.425 318.2C283.568 318.735 281.793 319.522 280.149 320.539C278.578 321.665 277.17 323.005 275.968 324.52C276.184 323.978 276.492 323.477 276.878 323.04C278.617 320.829 281.014 319.23 283.723 318.474C284.272 318.292 284.847 318.2 285.425 318.2Z" fill="#263238"/>
<path d="M285.063 316.72C282.904 317.471 280.705 318.101 278.477 318.607C276.287 319.227 274.063 319.721 271.817 320.087C273.976 319.341 276.175 318.713 278.403 318.207C280.593 317.587 282.817 317.09 285.063 316.72Z" fill="#263238"/>
<path d="M284.53 314.36C282.393 315.233 280.209 315.986 277.988 316.617C275.805 317.367 273.582 317.995 271.328 318.496C273.465 317.634 275.649 316.892 277.87 316.276C280.054 315.519 282.278 314.88 284.53 314.36Z" fill="#263238"/>
<path d="M264.321 327.902C264.291 328.129 264.352 328.359 264.49 328.542C264.629 328.724 264.834 328.845 265.061 328.878C265.531 328.934 266.005 328.821 266.4 328.56C266.781 328.298 267.194 328.087 267.628 327.931C268.553 327.68 269.589 328.138 270.47 327.761C271.003 327.539 271.38 327.021 271.906 326.806C272.823 326.385 273.926 326.806 274.866 326.562C275.805 326.318 276.531 325.297 277.53 325.082C278.529 324.868 279.402 325.408 280.305 325.164C281 324.979 281.518 324.364 282.206 324.142C283.146 323.832 284.249 324.276 285.166 323.832C285.351 323.749 285.514 323.624 285.643 323.467C285.771 323.31 285.861 323.126 285.906 322.929C285.944 322.732 285.921 322.528 285.84 322.344C285.76 322.161 285.625 322.006 285.455 321.9" fill="#263238"/>
<path d="M281.2 315.595C280.794 315.563 280.405 315.419 280.075 315.181C279.688 314.952 279.363 314.632 279.128 314.248C278.985 314.021 278.882 313.771 278.825 313.508C278.782 313.352 278.772 313.188 278.797 313.027C278.821 312.867 278.878 312.713 278.965 312.576C279.026 312.496 279.106 312.434 279.198 312.395C279.29 312.356 279.391 312.342 279.491 312.354C279.654 312.376 279.81 312.44 279.942 312.539C280.16 312.698 280.353 312.89 280.512 313.109C280.776 313.474 280.953 313.894 281.03 314.337C281.135 314.738 281.085 315.164 280.889 315.529C280.823 315.529 280.934 315.07 280.763 314.389C280.656 314.003 280.475 313.641 280.231 313.323C280.085 313.144 279.916 312.984 279.727 312.85C279.535 312.717 279.35 312.687 279.269 312.813C279.163 313.002 279.136 313.226 279.195 313.434C279.241 313.66 279.321 313.877 279.431 314.078C279.635 314.425 279.907 314.728 280.231 314.966C280.778 315.373 281.2 315.536 281.2 315.595Z" fill="#263238"/>
<path d="M281.037 315.166C281.037 315.166 280.852 314.818 281.037 314.234C281.13 313.898 281.306 313.59 281.548 313.338C281.697 313.187 281.866 313.058 282.051 312.954C282.179 312.881 282.329 312.857 282.473 312.887C282.557 312.914 282.631 312.966 282.686 313.036C282.74 313.106 282.771 313.191 282.776 313.279C282.838 313.671 282.778 314.073 282.604 314.43C282.431 314.787 282.153 315.083 281.807 315.277C281.274 315.558 280.889 315.484 280.897 315.447C280.904 315.41 281.237 315.351 281.637 315.048C281.905 314.859 282.117 314.599 282.247 314.297C282.378 313.996 282.423 313.664 282.377 313.338C282.377 313.242 282.377 313.25 282.377 313.257C282.32 313.252 282.263 313.265 282.214 313.294C281.797 313.519 281.472 313.883 281.296 314.323C281.067 314.811 281.104 315.159 281.037 315.166Z" fill="#263238"/>
<path d="M274.54 175.735L238.554 176.142L227.143 224.642C227.143 224.642 224.338 236.482 238.376 237.052C252.414 237.622 259.022 231.48 270.736 236.001C278.344 238.961 289.37 233.463 288.829 232.212C282.325 217.242 282.473 195.767 274.54 175.735Z" fill="#263238"/>
<path d="M285.507 235.586C285.507 235.586 285.448 235.379 285.359 234.987C285.27 234.595 285.144 234.003 284.944 233.263C284.338 231.183 283.581 229.15 282.68 227.18C281.265 224.261 280.029 221.259 278.98 218.189C277.893 214.367 277.265 210.43 277.108 206.46C276.864 202.242 276.849 198.224 276.605 194.62C276.439 191.379 275.981 188.159 275.236 185C274.728 182.882 273.998 180.823 273.06 178.858C272.727 178.162 272.446 177.637 272.239 177.289C272.125 177.115 272.031 176.929 271.957 176.734C272.083 176.897 272.2 177.068 272.305 177.245C272.629 177.744 272.926 178.26 273.193 178.791C274.198 180.738 274.975 182.794 275.509 184.919C276.297 188.073 276.792 191.293 276.989 194.539C277.256 198.194 277.278 202.212 277.522 206.379C277.674 210.326 278.285 214.242 279.343 218.048C280.37 221.108 281.569 224.107 282.932 227.032C283.829 229.028 284.559 231.095 285.115 233.211C285.292 233.951 285.418 234.55 285.47 234.957C285.503 235.165 285.515 235.376 285.507 235.586Z" fill="#455A64"/>
<path d="M251.933 195.723C251.933 195.723 251.881 195.782 251.741 195.834C251.535 195.908 251.314 195.931 251.097 195.9C250.697 195.827 250.324 195.646 250.02 195.376C249.716 195.106 249.492 194.757 249.373 194.368C249.11 193.236 249.04 192.068 249.165 190.913C249.202 189.61 249.247 188.197 249.291 186.717C249.395 183.757 249.506 181.048 249.602 179.095C249.661 178.185 249.706 177.415 249.743 176.786C249.749 176.502 249.784 176.219 249.846 175.942C249.899 176.223 249.914 176.509 249.891 176.793C249.891 177.422 249.891 178.192 249.891 179.102C249.891 181.056 249.794 183.749 249.691 186.732C249.639 188.212 249.587 189.625 249.535 190.92C249.398 192.039 249.436 193.172 249.646 194.28C249.74 194.635 249.927 194.959 250.187 195.219C250.447 195.479 250.771 195.666 251.126 195.76C251.395 195.797 251.669 195.784 251.933 195.723Z" fill="#455A64"/>
<path d="M251.859 177.822C251.815 177.822 252.155 177.526 252.695 177.763C252.848 177.831 252.984 177.932 253.092 178.061C253.2 178.189 253.277 178.34 253.317 178.503C253.35 178.721 253.309 178.944 253.2 179.136C253.091 179.328 252.921 179.477 252.717 179.561C252.521 179.665 252.295 179.698 252.078 179.653C251.86 179.609 251.665 179.49 251.526 179.317C251.435 179.166 251.387 178.993 251.387 178.817C251.387 178.641 251.435 178.469 251.526 178.318C251.575 178.217 251.646 178.128 251.732 178.056C251.819 177.985 251.92 177.933 252.029 177.904C252.185 177.867 252.266 177.904 252.266 177.904C252.266 177.904 251.926 177.985 251.778 178.414C251.734 178.522 251.717 178.639 251.728 178.754C251.738 178.87 251.775 178.982 251.837 179.08C251.931 179.178 252.055 179.241 252.189 179.259C252.323 179.278 252.46 179.252 252.577 179.184C252.706 179.136 252.817 179.047 252.892 178.931C252.966 178.815 253.001 178.678 252.991 178.54C252.97 178.421 252.924 178.307 252.855 178.207C252.786 178.108 252.696 178.024 252.592 177.963C252.185 177.763 251.874 177.881 251.859 177.822Z" fill="#455A64"/>
<path d="M275.376 185.34C275.17 185.403 274.955 185.435 274.74 185.437C274.151 185.472 273.56 185.472 272.971 185.437C271.001 185.377 269.086 184.775 267.436 183.698C266.622 183.132 265.938 182.4 265.427 181.551C264.917 180.701 264.593 179.753 264.476 178.769C264.412 178.173 264.463 177.57 264.624 176.993C264.666 176.778 264.752 176.574 264.876 176.394C264.711 177.164 264.666 177.955 264.742 178.74C264.893 179.67 265.23 180.56 265.732 181.357C266.234 182.154 266.892 182.842 267.665 183.379C269.264 184.417 271.1 185.03 273.001 185.163C274.459 185.318 275.376 185.274 275.376 185.34Z" fill="#263238"/>
<path d="M241.529 175.809C241.529 175.809 241.61 175.994 241.684 176.342C241.768 176.831 241.818 177.326 241.832 177.822C241.875 179.509 241.581 181.187 240.966 182.758C240.426 184.375 239.416 185.795 238.065 186.835C237.633 187.128 237.139 187.317 236.622 187.39C236.438 187.436 236.245 187.436 236.06 187.39C236.724 187.286 237.357 187.033 237.91 186.65C239.151 185.583 240.083 184.203 240.611 182.654C241.201 181.122 241.521 179.5 241.558 177.859C241.595 176.601 241.462 175.817 241.529 175.809Z" fill="#263238"/>
<path d="M287.542 229.4C286.985 230.007 286.347 230.535 285.647 230.969C283.739 232.166 281.588 232.925 279.35 233.189C276.038 233.557 272.689 233.397 269.427 232.715C265.727 232.094 261.731 231.073 257.439 231.036C253.147 230.999 249.18 232.308 245.599 233.256C243.897 233.727 242.166 234.09 240.419 234.343C238.877 234.537 237.319 234.567 235.771 234.432C233.515 234.278 231.339 233.535 229.459 232.279C229.169 232.08 228.892 231.863 228.63 231.628C228.433 231.46 228.248 231.28 228.075 231.087C227.927 230.936 227.789 230.775 227.661 230.606C228.254 231.165 228.884 231.682 229.548 232.153C231.428 233.343 233.58 234.036 235.801 234.166C237.329 234.278 238.864 234.231 240.382 234.025C242.129 233.759 243.859 233.389 245.562 232.915C249.158 231.983 253.139 230.636 257.52 230.695C261.901 230.754 265.904 231.776 269.567 232.412C272.795 233.103 276.11 233.288 279.394 232.96C281.606 232.721 283.74 232.012 285.655 230.88C286.905 229.992 287.505 229.334 287.542 229.4Z" fill="#263238"/>
<path d="M273.608 176.934C273.511 176.993 273.304 176.831 273.141 176.579C272.979 176.327 272.919 176.068 273.008 176.009C273.097 175.95 273.304 176.105 273.467 176.364C273.63 176.623 273.696 176.86 273.608 176.934Z" fill="#455A64"/>
<path d="M275.62 181.063C275.524 181.108 275.243 180.664 274.991 180.087C274.74 179.509 274.614 179.006 274.703 178.954C274.792 178.903 275.088 179.347 275.339 179.939C275.591 180.531 275.724 181.026 275.62 181.063Z" fill="#455A64"/>
<path d="M276.967 185.466C276.864 185.466 276.649 185.015 276.486 184.401C276.323 183.787 276.272 183.276 276.375 183.239C276.479 183.202 276.693 183.683 276.856 184.305C277.019 184.926 277.071 185.437 276.967 185.466Z" fill="#455A64"/>
<path d="M277.796 189.988C277.692 189.988 277.53 189.507 277.426 188.878C277.322 188.249 277.337 187.738 277.426 187.716C277.515 187.694 277.692 188.19 277.796 188.819C277.9 189.448 277.9 189.973 277.796 189.988Z" fill="#455A64"/>
<path d="M278.24 194.561C278.136 194.561 278.003 194.065 277.951 193.436C277.9 192.807 277.951 192.282 278.048 192.267C278.144 192.252 278.277 192.763 278.336 193.399C278.395 194.036 278.373 194.554 278.24 194.561Z" fill="#455A64"/>
<path d="M278.529 199.156C278.418 199.156 278.314 198.653 278.277 198.017C278.24 197.38 278.277 196.862 278.41 196.855C278.543 196.847 278.632 197.365 278.662 198.002C278.691 198.638 278.632 199.156 278.529 199.156Z" fill="#455A64"/>
<path d="M278.758 203.752C278.654 203.752 278.536 203.249 278.506 202.612C278.477 201.976 278.506 201.458 278.632 201.458C278.758 201.458 278.854 201.961 278.891 202.597C278.928 203.234 278.862 203.744 278.758 203.752Z" fill="#455A64"/>
<path d="M279.128 208.34C279.017 208.34 278.884 207.844 278.825 207.215C278.765 206.586 278.825 206.053 278.913 206.046C279.002 206.038 279.15 206.549 279.209 207.178C279.269 207.807 279.232 208.325 279.128 208.34Z" fill="#455A64"/>
<path d="M279.794 212.891C279.69 212.891 279.52 212.417 279.417 211.788C279.313 211.159 279.306 210.634 279.417 210.619C279.528 210.604 279.698 211.1 279.801 211.722C279.905 212.343 279.898 212.869 279.794 212.891Z" fill="#455A64"/>
<path d="M280.934 217.346C280.837 217.383 280.608 216.909 280.43 216.295C280.253 215.681 280.194 215.163 280.297 215.14C280.401 215.118 280.623 215.584 280.8 216.191C280.978 216.798 281.037 217.316 280.934 217.346Z" fill="#455A64"/>
<path d="M282.68 221.593C282.591 221.645 282.273 221.223 282.007 220.639C281.74 220.054 281.614 219.543 281.711 219.506C281.807 219.469 282.095 219.899 282.354 220.476C282.613 221.053 282.798 221.541 282.68 221.593Z" fill="#455A64"/>
<path d="M284.9 225.634C284.804 225.685 284.478 225.278 284.16 224.723C283.842 224.168 283.679 223.673 283.775 223.621C283.871 223.569 284.19 223.983 284.515 224.538C284.841 225.093 284.996 225.589 284.9 225.634Z" fill="#455A64"/>
<path d="M286.78 229.829C286.676 229.866 286.41 229.415 286.18 228.83C285.951 228.246 285.84 227.735 285.936 227.691C286.032 227.646 286.299 228.098 286.535 228.69C286.772 229.282 286.883 229.8 286.78 229.829Z" fill="#455A64"/>
<path d="M287.409 233.181C287.298 233.181 287.194 232.945 287.164 232.649C287.135 232.353 287.201 232.094 287.305 232.079C287.409 232.064 287.52 232.301 287.549 232.612C287.579 232.922 287.512 233.181 287.409 233.181Z" fill="#455A64"/>
<path d="M247.256 120.006C247.256 120.006 267.739 185.984 280.911 195.849L279.875 190.054C271.95 176.202 262.448 149.354 251.852 119.666C250.971 118.977 247.648 119.229 247.256 120.006Z" fill="#F05C44"/>
<path d="M273.741 144.433L280.837 160.225C270.559 160.166 259.311 157.798 254.59 156.525C254.227 156.177 253.85 155.785 253.398 155.334C252.899 154.803 252.492 154.192 252.192 153.528C251.788 152.718 251.497 151.856 251.326 150.968C251.252 150.146 250.231 149.821 249.846 150.457C249.461 151.093 249.624 153.38 250.934 155.711C252.244 158.042 248.388 156.451 246.975 155.933C245.562 155.415 241.099 153.898 240.596 154.201C239.856 154.653 240.211 155.548 241.64 156.059C243.068 156.569 247.249 158.419 246.938 159.159C246.627 159.899 239.464 156.999 239.464 156.999C239.464 156.999 237.984 156.133 237.644 156.999C236.955 158.523 244.792 161.024 245.547 161.239C246.065 161.394 245.761 162.208 245.214 162.016C244.666 161.823 238.117 158.967 237.399 160.536C236.852 161.72 243.83 162.652 244.881 163.999C245.932 165.346 239.642 162.748 239.168 163.903C238.99 164.332 238.916 164.643 242.727 165.649C245.823 166.284 248.95 166.751 252.096 167.048C258.142 168.816 273.016 172.228 283.834 171.91C283.834 171.91 299.175 172.176 296.518 162.896C293.662 152.951 285.492 137.773 285.492 137.773L273.741 144.433Z" fill="#F6DAD6"/>
<path d="M265.66 102.12C265.517 102.101 265.372 102.139 265.257 102.227C265.142 102.314 265.066 102.443 265.046 102.586C265.044 102.657 265.056 102.727 265.081 102.793C265.107 102.859 265.145 102.919 265.194 102.97C265.243 103.021 265.301 103.062 265.366 103.09C265.431 103.118 265.501 103.133 265.571 103.134C265.642 103.127 265.711 103.105 265.773 103.07C265.836 103.035 265.89 102.988 265.933 102.931C265.976 102.874 266.007 102.808 266.024 102.739C266.04 102.669 266.043 102.597 266.03 102.527C266.009 102.46 265.974 102.398 265.927 102.345C265.88 102.292 265.823 102.249 265.759 102.22C265.695 102.191 265.625 102.175 265.554 102.174C265.484 102.174 265.414 102.188 265.349 102.216" fill="#E8505B"/>
<path d="M312.598 280.985C311.71 281.054 310.845 281.302 310.055 281.714C309.266 282.126 308.567 282.694 308.003 283.383C306.879 284.771 306.089 286.399 305.694 288.141C304.836 291.471 305.413 295.386 306.39 298.686C309.971 297.369 312.162 293.506 313.146 291.486C314.7 288.289 315.573 281.555 312.598 280.985Z" fill="#E4543D"/>
<path d="M301.247 302.756C301.779 301.914 302.08 300.946 302.117 299.951C302.155 298.955 301.929 297.967 301.461 297.088C300.979 296.216 300.328 295.45 299.547 294.832C298.766 294.215 297.869 293.759 296.91 293.491C296.483 293.322 296.024 293.249 295.565 293.276C295.106 293.302 294.658 293.429 294.254 293.647C293.914 293.91 293.65 294.26 293.49 294.659C293.33 295.058 293.28 295.493 293.343 295.918C293.485 296.771 293.85 297.57 294.402 298.235C296.17 300.588 298.309 302.541 301.247 302.756Z" fill="#F05C44"/>
<path d="M301.217 314.182C301.306 313.956 301.366 313.72 301.395 313.479C301.483 313.027 301.594 312.361 301.713 311.54C302.062 309.394 302.119 307.211 301.883 305.05C301.632 302.863 300.79 300.786 299.448 299.041C299.037 298.523 298.562 298.058 298.035 297.657C297.851 297.497 297.641 297.369 297.413 297.28C298.074 297.871 298.683 298.517 299.234 299.211C300.478 300.961 301.257 302.998 301.498 305.131C301.727 307.262 301.71 309.413 301.446 311.54C301.315 312.415 301.239 313.297 301.217 314.182Z" fill="#263238"/>
<path d="M311.481 286.047C311.276 286.39 311.098 286.749 310.948 287.12C310.63 287.815 310.208 288.829 309.646 290.08C308.573 292.596 307.152 296.103 305.672 300.018C304.192 303.933 302.941 307.507 302.075 310.104C301.646 311.407 301.335 312.465 301.091 313.197C300.959 313.571 300.855 313.955 300.78 314.345C300.96 313.99 301.111 313.621 301.232 313.242C301.513 312.457 301.89 311.436 302.334 310.193C303.267 307.618 304.554 304.058 306.034 300.151C307.514 296.244 308.891 292.751 309.897 290.176C310.386 288.955 310.785 287.956 311.089 287.164C311.249 286.803 311.38 286.429 311.481 286.047Z" fill="#263238"/>
<path d="M304.984 306.027C306.167 304.292 307.747 302.864 309.593 301.862C311.438 300.859 313.496 300.311 315.595 300.262C316.661 300.262 317.926 300.507 318.341 301.483C318.755 302.46 318.059 303.563 317.29 304.303C315.657 305.821 313.612 306.822 311.411 307.179C309.21 307.536 306.953 307.233 304.924 306.308" fill="#F05C44"/>
<path d="M313.76 302.882C313.532 302.846 313.3 302.846 313.072 302.882C312.801 302.896 312.531 302.93 312.265 302.985C311.908 303.036 311.555 303.107 311.207 303.2C310.302 303.424 309.422 303.739 308.58 304.14C307.551 304.651 306.579 305.269 305.679 305.982C304.795 306.718 303.989 307.544 303.274 308.447C302.703 309.192 302.207 309.993 301.794 310.837C301.609 311.185 301.491 311.525 301.365 311.821C301.261 312.061 301.175 312.308 301.106 312.561C301.023 312.777 300.971 313.004 300.951 313.234C301.025 313.234 301.298 312.309 302.038 310.926C302.477 310.121 302.984 309.356 303.555 308.639C304.265 307.769 305.058 306.971 305.923 306.256C306.797 305.554 307.739 304.941 308.735 304.428C309.554 304.015 310.409 303.675 311.288 303.415C312.783 303.03 313.76 302.956 313.76 302.882Z" fill="#263238"/>
<path d="M67.571 146.958C77.931 142.392 82.8816 174.989 83.555 177.52C84.2284 180.05 85.9748 180.369 88.994 176.565C92.0132 172.761 94.5958 174.234 94.5958 174.234C100.272 177.682 92.5756 197.803 92.6496 199.438C92.7236 201.074 91.5174 203.427 97.4078 200.097C103.298 196.767 108.241 194.991 109.1 200.097C109.884 204.744 103.861 218.153 103.92 220.077C103.979 222.001 110.047 217.176 112.615 215.585C115.923 213.528 119.46 213.669 120.081 217.805C120.888 223.237 110.106 239.095 110.106 239.095L104.926 247.176L95.469 244.63C95.469 244.63 76.969 239.406 74.0756 234.758C71.8556 231.184 74.4308 228.779 78.2862 228.187C81.2462 227.729 88.994 227.447 87.8174 225.967C86.6408 224.487 73.343 218.19 70.9158 214.15C68.2518 209.71 73.1358 207.852 79.7958 206.55C86.4558 205.247 83.9916 204.248 82.9852 202.961C81.9788 201.673 63.0496 191.387 65.1142 185.075C65.1142 185.075 66.128 182.27 70.8936 183.203C75.6592 184.135 76.8136 182.751 75.6444 180.391C74.4752 178.03 57.0926 150.036 67.9114 146.78" fill="#F05C44"/>
<path d="M110.26 262.485C110.06 262.559 101.217 238.872 90.5094 209.583C79.8016 180.293 71.2694 156.488 71.484 156.414C71.6986 156.34 80.5268 180.02 91.2346 209.316C101.942 238.613 110.43 262.411 110.26 262.485Z" fill="white"/>
<path d="M85.6476 195.234C85.4478 195.167 86.247 192.496 87.6456 189.373C89.0442 186.25 90.5094 183.882 90.687 183.979C90.8646 184.075 89.7324 186.591 88.3486 189.691C86.9648 192.792 85.84 195.308 85.6476 195.234Z" fill="white"/>
<path d="M72.9048 189.876C72.9566 189.684 75.9536 190.276 79.439 191.689C82.9244 193.103 85.4996 194.738 85.396 194.916C85.2924 195.093 82.584 193.776 79.1504 192.4C75.7168 191.023 72.8456 190.091 72.9048 189.876Z" fill="white"/>
<path d="M93.3953 216.82C93.2399 216.679 95.4525 213.86 98.3385 210.448C101.225 207.037 103.711 204.44 103.866 204.58C104.022 204.721 101.817 207.54 98.9231 210.952C96.0297 214.363 93.5581 216.983 93.3953 216.82Z" fill="white"/>
<path d="M76.22 213.379C76.22 213.172 80.2678 213.512 85.1518 214.474C90.0358 215.436 93.8838 216.627 93.832 216.827C93.7802 217.027 89.8582 216.176 85.0038 215.229C80.1494 214.282 76.22 213.593 76.22 213.379Z" fill="white"/>
<path d="M81.5555 234.077C81.5555 233.87 85.8031 234.314 90.9683 235.068C96.1335 235.823 100.307 236.615 100.277 236.83C100.248 237.044 96.0299 236.593 90.8573 235.831C85.6847 235.068 81.5259 234.291 81.5555 234.077Z" fill="white"/>
<path d="M100.744 236.474C100.596 236.297 103.467 233.995 106.442 230.621C109.416 227.246 111.37 224.138 111.57 224.264C111.77 224.39 110.09 227.705 107.019 231.131C103.948 234.558 100.847 236.637 100.744 236.474Z" fill="white"/>
<path d="M336.87 99.4634C336.87 99.4634 336.87 99.2932 336.915 98.975C336.959 98.6568 336.996 98.1758 337.063 97.569C337.063 97.2582 337.159 96.9104 337.166 96.5256C337.174 96.1408 337.166 95.719 337.166 95.2676C337.166 94.8162 337.166 94.3204 337.166 93.7876C337.166 93.2548 337.077 92.7146 337.026 92.1226C336.728 89.26 335.979 86.4627 334.806 83.8346C333.256 80.3607 330.986 77.2557 328.146 74.7252L326.932 73.6744C326.503 73.3488 326.051 73.038 325.607 72.7198C324.687 72.0671 323.725 71.4739 322.729 70.9438C320.598 69.8367 318.328 69.0203 315.98 68.5166C314.761 68.2412 313.525 68.0483 312.28 67.9394C311.644 67.8654 310.992 67.895 310.341 67.8728H309.364C309.039 67.8728 308.713 67.9246 308.38 67.9468C305.658 68.0947 302.978 68.6768 300.44 69.671C294.958 71.778 290.313 75.6153 287.209 80.6008C283.914 85.9772 282.575 92.3263 283.42 98.5754C283.479 98.9898 283.546 99.3968 283.62 99.7964V99.8778L283.575 99.9444L274.858 112.051L274.681 111.755L287.542 109.764H287.653L287.719 109.86C291.423 115.406 297.057 119.376 303.526 120.997C304.497 121.254 305.487 121.437 306.486 121.545L307.966 121.73C308.454 121.789 308.943 121.767 309.446 121.789C313.113 121.893 316.762 121.243 320.168 119.88C323.075 118.71 325.762 117.056 328.116 114.989L329.633 113.56L330.935 112.08C331.344 111.612 331.722 111.117 332.068 110.6C332.401 110.105 332.808 109.661 333.052 109.172C334.058 107.562 334.899 105.854 335.56 104.074L336.226 102.12C336.36 101.543 336.478 101.054 336.567 100.64L336.789 99.752C336.841 99.5448 336.87 99.4486 336.87 99.4486C336.86 99.5507 336.842 99.6521 336.818 99.752C336.774 99.9666 336.715 100.27 336.633 100.655C336.552 101.04 336.441 101.55 336.315 102.135L335.671 104.103C335.032 105.911 334.206 107.647 333.207 109.283C332.933 109.779 332.556 110.23 332.223 110.763C331.877 111.28 331.499 111.774 331.091 112.243L329.788 113.723L328.271 115.203C325.907 117.303 323.202 118.985 320.272 120.176C316.842 121.547 313.168 122.202 309.475 122.1C308.987 122.1 308.484 122.1 307.995 122.048L306.515 121.863C305.494 121.756 304.483 121.573 303.489 121.316C301.425 120.804 299.427 120.059 297.532 119.096C293.481 116.974 290.02 113.879 287.46 110.09L287.638 110.164L274.777 112.169L274.333 112.236L274.599 111.866C277.419 107.944 280.334 103.896 283.302 99.7594V99.9074C283.228 99.5004 283.154 99.086 283.094 98.6716C282.249 92.3295 283.616 85.8899 286.965 80.438C290.109 75.3732 294.823 71.4752 300.388 69.338C302.95 68.3322 305.655 67.7402 308.402 67.5842C308.735 67.5842 309.068 67.525 309.401 67.5176H310.393C311.052 67.5176 311.703 67.5176 312.347 67.5842C313.617 67.6986 314.878 67.8989 316.121 68.1836C319.599 68.9566 322.883 70.4322 325.77 72.52C326.222 72.8456 326.673 73.1638 327.11 73.4894L328.323 74.5624C333.41 79.0818 336.585 85.3685 337.203 92.1448C337.248 92.7368 337.292 93.2992 337.329 93.8246C337.366 94.35 337.329 94.8384 337.329 95.3046C337.329 95.7708 337.329 96.1852 337.329 96.57C337.329 96.9548 337.24 97.31 337.211 97.6134C337.129 98.2202 337.063 98.6938 337.018 99.0194C336.974 99.345 336.87 99.4634 336.87 99.4634Z" fill="#263238"/>
<path d="M303.615 88.0084C303.93 88.8301 304.34 89.6124 304.836 90.3394C305.395 91.0972 306.109 91.7277 306.93 92.1894C307.953 92.7288 309.096 93.0035 310.252 92.9886C311.406 93.0172 312.549 92.7632 313.582 92.2486C314.413 91.8056 315.122 91.1652 315.647 90.3838C316.117 89.6409 316.487 88.8398 316.75 88.001C316.778 88.2518 316.745 88.5056 316.653 88.741C316.487 89.3809 316.225 89.9921 315.876 90.554C315.354 91.4008 314.623 92.099 313.753 92.5816C312.672 93.1458 311.464 93.4235 310.245 93.3882C309.027 93.4036 307.826 93.1027 306.76 92.515C305.901 92.0191 305.167 91.3331 304.614 90.5096C304.243 89.9613 303.951 89.3634 303.748 88.7336C303.651 88.5043 303.606 88.2569 303.615 88.0084Z" fill="white"/>
<path d="M186.894 47.4858V94.4684L174.914 82.4878H87.7122V47.4858H186.894Z" fill="#F05C44"/>
<path d="M130.98 61.605C130.98 61.5014 141.207 61.4126 153.816 61.4126C166.426 61.4126 176.66 61.5014 176.66 61.605C176.66 61.7086 166.441 61.7974 153.816 61.7974C141.192 61.7974 130.98 61.716 130.98 61.605Z" fill="white"/>
<path d="M130.98 66.637C130.98 66.526 141.207 66.4446 153.816 66.4446C166.426 66.4446 176.66 66.526 176.66 66.637C176.66 66.748 166.441 66.8294 153.816 66.8294C141.192 66.8294 130.98 66.7406 130.98 66.637Z" fill="white"/>
<path d="M130.98 71.5875C130.98 71.4765 136.293 71.3877 142.82 71.3877C149.347 71.3877 154.66 71.4765 154.66 71.5875C154.66 71.6985 149.347 71.7799 142.82 71.7799C136.293 71.7799 130.98 71.6911 130.98 71.5875Z" fill="white"/>
<path d="M130.98 56.4324C130.98 56.3288 136.5 56.24 143.308 56.24C150.116 56.24 155.629 56.3288 155.629 56.4324C155.629 56.536 150.116 56.6248 143.308 56.6248C136.5 56.6248 130.98 56.5434 130.98 56.4324Z" fill="white"/>
<path d="M110.097 79.4169C117.396 79.4169 123.314 73.4998 123.314 66.2005C123.314 58.9013 117.396 52.9841 110.097 52.9841C102.798 52.9841 96.8807 58.9013 96.8807 66.2005C96.8807 73.4998 102.798 79.4169 110.097 79.4169Z" fill="#F05C44"/>
<path opacity="0.2" d="M110.097 79.4169C117.396 79.4169 123.314 73.4998 123.314 66.2005C123.314 58.9013 117.396 52.9841 110.097 52.9841C102.798 52.9841 96.8807 58.9013 96.8807 66.2005C96.8807 73.4998 102.798 79.4169 110.097 79.4169Z" fill="black"/>
<path d="M111.244 65.9785C111.827 65.7076 112.317 65.2713 112.654 64.724C112.991 64.1767 113.159 63.5424 113.139 62.9001C113.152 62.4839 113.081 62.0693 112.93 61.6814C112.778 61.2935 112.55 60.9403 112.258 60.6432C111.966 60.3461 111.617 60.1114 111.232 59.9531C110.847 59.7948 110.434 59.7162 110.017 59.7222C109.601 59.7283 109.19 59.8187 108.81 59.988C108.429 60.1574 108.087 60.4022 107.804 60.7075C107.521 61.0129 107.303 61.3726 107.163 61.7647C107.023 62.1568 106.964 62.5733 106.989 62.9889C106.989 63.6347 107.18 64.2659 107.538 64.8032C107.897 65.3405 108.406 65.7598 109.002 66.0081C104.288 66.8147 104.599 71.9281 104.599 71.9281L115.788 71.7801C115.788 71.7801 115.943 66.6001 111.244 65.9785Z" fill="white"/>
<path d="M185.614 134.68V158.812L179.465 152.655H134.68V134.68H185.614Z" fill="#F05C44"/>
<path d="M139.179 140.252C139.179 140.149 144.144 140.06 150.279 140.06C156.414 140.06 161.379 140.149 161.379 140.252C161.379 140.356 156.414 140.445 150.279 140.445C144.144 140.445 139.179 140.363 139.179 140.252Z" fill="white"/>
<path d="M171.924 145.262C173.996 145.005 176.091 145.005 178.162 145.262C176.091 145.518 173.996 145.518 171.924 145.262Z" fill="white"/>
<path d="M170.452 146.646C170.348 146.646 170.17 146.328 169.963 145.906C169.756 145.484 169.586 145.166 169.675 145.077C169.763 144.988 170.082 145.277 170.311 145.728C170.54 146.18 170.555 146.624 170.452 146.646Z" fill="white"/>
<path d="M158.937 145.092C160.357 144.897 161.791 144.833 163.222 144.899C164.653 144.833 166.087 144.897 167.506 145.092C166.087 145.282 164.653 145.346 163.222 145.284C161.791 145.346 160.357 145.282 158.937 145.092Z" fill="white"/>
<path d="M157.894 146.565C157.798 146.609 157.531 146.283 157.294 145.825C157.058 145.366 156.932 144.959 157.028 144.907C157.124 144.855 157.391 145.188 157.635 145.647C157.879 146.106 157.99 146.52 157.894 146.565Z" fill="white"/>
<path d="M145.425 145.04C146.916 144.85 148.421 144.785 149.924 144.848C151.429 144.785 152.936 144.85 154.431 145.04C152.936 145.231 151.429 145.295 149.924 145.233C148.421 145.295 146.916 145.23 145.425 145.04Z" fill="white"/>
<path d="M144.3 145.78C144.211 145.839 143.937 145.573 143.686 145.181C143.434 144.788 143.308 144.441 143.397 144.367C143.486 144.293 143.76 144.581 144.011 144.973C144.263 145.366 144.396 145.721 144.3 145.78Z" fill="white"/>
<path d="M139.275 144.655C139.275 144.552 139.875 144.463 140.615 144.463C141.355 144.463 141.962 144.552 141.962 144.655C141.962 144.759 141.362 144.848 140.615 144.848C139.867 144.848 139.275 144.766 139.275 144.655Z" fill="white"/>
<path d="M315.091 82.6565C315.069 83.3172 314.471 83.8699 313.814 83.836C313.138 83.8021 312.608 83.2219 312.636 82.5464C312.662 81.8731 313.239 81.3522 313.924 81.3818C314.624 81.4136 315.114 81.9493 315.091 82.6565Z" fill="black"/>
<path d="M307.497 82.5968C307.5 83.2776 306.954 83.8343 306.279 83.8375C305.609 83.8406 305.045 83.2797 305.041 82.6043C305.036 81.9193 305.58 81.3785 306.271 81.3806C306.981 81.3827 307.495 81.8928 307.497 82.5968Z" fill="black"/>
<path d="M311.412 87.2994C311.594 87.2994 311.744 87.4481 311.709 87.6262C311.688 87.7336 311.656 87.8388 311.614 87.9404C311.529 88.1437 311.406 88.3283 311.25 88.4839C311.095 88.6394 310.91 88.7628 310.707 88.847C310.504 88.9312 310.286 88.9745 310.066 88.9745C309.846 88.9745 309.628 88.9312 309.425 88.847C309.222 88.7628 309.037 88.6394 308.881 88.4839C308.726 88.3283 308.603 88.1437 308.518 87.9404C308.476 87.8388 308.444 87.7336 308.423 87.6262C308.388 87.4481 308.538 87.2994 308.72 87.2994C308.901 87.2994 309.044 87.4504 309.101 87.6226C309.109 87.6449 309.117 87.6669 309.126 87.6887C309.177 87.8121 309.252 87.9242 309.347 88.0187C309.441 88.1131 309.553 88.1881 309.677 88.2392C309.8 88.2903 309.932 88.3166 310.066 88.3166C310.2 88.3166 310.332 88.2903 310.455 88.2392C310.579 88.1881 310.691 88.1131 310.785 88.0187C310.88 87.9242 310.955 87.8121 311.006 87.6887C311.015 87.6669 311.023 87.6449 311.03 87.6226C311.088 87.4504 311.23 87.2994 311.412 87.2994Z" fill="black"/>
<path d="M315.315 113.18C315.323 114.728 313.043 115.993 310.221 116C307.417 116.007 305.058 114.732 305.041 113.197C305.023 111.64 307.295 110.411 310.186 110.416C313.157 110.421 315.306 111.58 315.315 113.18Z" fill="black"/>
<path fill-rule="evenodd" clip-rule="evenodd" d="M307.183 72.3303C301.249 73.6844 296.981 79.0448 297 85.1009C296.994 87.2749 297.442 89.3557 298.512 91.2502C301.709 96.8715 304.937 102.48 308.19 108.071C309.142 109.711 311.157 109.711 312.103 108.077C312.806 106.864 313.51 105.651 314.216 104.439C316.762 100.06 319.31 95.6793 321.751 91.2378C323.865 87.3805 323.847 83.3431 321.937 79.3678C319.312 73.908 313.129 70.97 307.183 72.3303ZM310.178 94.7817C315.605 94.7817 320.005 90.3818 320.005 84.9543C320.005 79.5268 315.605 75.1269 310.178 75.1269C304.75 75.1269 300.35 79.5268 300.35 84.9543C300.35 90.3818 304.75 94.7817 310.178 94.7817Z" fill="#F05C44"/>
<circle cx="159.672" cy="255.647" r="9.65059" fill="white"/>
<path d="M164.429 279.388C164.436 280.718 162.477 281.805 160.052 281.811C157.642 281.817 155.615 280.722 155.6 279.403C155.585 278.065 157.537 277.009 160.022 277.013C162.574 277.017 164.421 278.013 164.429 279.388Z" fill="black"/>
<path d="M161.55 255.02C161.553 255.924 160.828 256.663 159.932 256.668C159.042 256.672 158.293 255.927 158.287 255.03C158.281 254.12 159.003 253.402 159.921 253.405C160.865 253.408 161.547 254.085 161.55 255.02Z" fill="black"/>
<path fill-rule="evenodd" clip-rule="evenodd" d="M157.44 244.284C152.341 245.447 148.674 250.054 148.69 255.258C148.685 257.126 149.07 258.915 149.989 260.543C152.737 265.373 155.511 270.193 158.306 274.997C159.124 276.406 160.856 276.406 161.669 275.003C162.272 273.96 162.878 272.918 163.484 271.876C165.673 268.113 167.862 264.349 169.959 260.532C171.777 257.217 171.761 253.748 170.12 250.331C167.864 245.64 162.551 243.115 157.44 244.284ZM160.014 263.577C164.678 263.577 168.459 259.796 168.459 255.132C168.459 250.468 164.678 246.687 160.014 246.687C155.35 246.687 151.569 250.468 151.569 255.132C151.569 259.796 155.35 263.577 160.014 263.577Z" fill="#F05C44"/>
<circle cx="129.982" cy="107.647" r="9.65059" fill="white"/>
<path d="M134.739 131.388C134.746 132.718 132.787 133.805 130.362 133.811C127.952 133.817 125.925 132.722 125.91 131.403C125.895 130.065 127.847 129.009 130.332 129.013C132.884 129.017 134.731 130.013 134.739 131.388Z" fill="black"/>
<path d="M131.86 107.02C131.863 107.924 131.138 108.663 130.242 108.668C129.352 108.672 128.602 107.927 128.597 107.03C128.591 106.12 129.313 105.402 130.231 105.405C131.174 105.408 131.857 106.085 131.86 107.02Z" fill="black"/>
<path fill-rule="evenodd" clip-rule="evenodd" d="M127.75 96.2838C122.651 97.4475 118.984 102.054 119 107.258C118.995 109.126 119.38 110.915 120.299 112.543C123.046 117.373 125.821 122.193 128.616 126.997C129.434 128.406 131.166 128.406 131.979 127.003C132.582 125.96 133.188 124.918 133.794 123.876C135.983 120.113 138.172 116.349 140.269 112.532C142.087 109.217 142.071 105.748 140.43 102.331C138.174 97.6396 132.861 95.1149 127.75 96.2838ZM130.324 115.577C134.988 115.577 138.769 111.796 138.769 107.132C138.769 102.468 134.988 98.6871 130.324 98.6871C125.66 98.6871 121.879 102.468 121.879 107.132C121.879 111.796 125.66 115.577 130.324 115.577Z" fill="#F05C44"/>
<circle cx="194.982" cy="189.647" r="9.65059" fill="white"/>
<path d="M199.739 213.388C199.746 214.718 197.787 215.805 195.362 215.811C192.952 215.817 190.925 214.722 190.91 213.403C190.895 212.065 192.847 211.009 195.332 211.013C197.884 211.017 199.731 212.013 199.739 213.388Z" fill="black"/>
<path d="M196.86 189.02C196.863 189.924 196.138 190.663 195.242 190.668C194.352 190.672 193.602 189.927 193.597 189.03C193.591 188.12 194.313 187.402 195.231 187.405C196.174 187.408 196.857 188.085 196.86 189.02Z" fill="black"/>
<path fill-rule="evenodd" clip-rule="evenodd" d="M192.75 178.284C187.651 179.447 183.984 184.054 184 189.258C183.995 191.126 184.38 192.915 185.299 194.543C188.046 199.373 190.821 204.193 193.616 208.997C194.434 210.406 196.166 210.406 196.979 209.003C197.582 207.96 198.188 206.918 198.794 205.876C200.983 202.113 203.172 198.349 205.269 194.532C207.087 191.217 207.071 187.748 205.43 184.331C203.174 179.64 197.861 177.115 192.75 178.284ZM195.324 197.577C199.988 197.577 203.769 193.796 203.769 189.132C203.769 184.468 199.988 180.687 195.324 180.687C190.66 180.687 186.879 184.468 186.879 189.132C186.879 193.796 190.66 197.577 195.324 197.577Z" fill="#F05C44"/>
</svg>
