<svg width="240" height="400" viewBox="0 0 240 400" fill="none" xmlns="http://www.w3.org/2000/svg">
<path d="M164.459 96.8777C164.261 102.884 158.828 107.908 152.855 107.6C146.713 107.292 141.895 102.017 142.141 95.8767C142.378 89.7552 147.631 85.0198 153.859 85.2893C160.219 85.578 164.677 90.4482 164.459 96.8777Z" fill="black"/>
<path d="M95.4318 96.3349C95.4508 102.524 90.4938 107.584 84.3594 107.613C78.2629 107.642 73.135 102.543 73.097 96.4024C73.059 90.1753 77.997 85.2591 84.2834 85.2784C90.7407 85.2977 95.4128 89.9343 95.4318 96.3349Z" fill="black"/>
<path d="M133.01 139.085C133.562 139.085 134.014 139.533 133.977 140.084C133.868 141.742 133.489 143.374 132.851 144.913C132.086 146.76 130.964 148.439 129.55 149.853C128.136 151.267 126.457 152.389 124.609 153.154C122.762 153.92 120.782 154.314 118.782 154.314C116.782 154.314 114.802 153.92 112.954 153.154C111.107 152.389 109.428 151.267 108.014 149.853C106.6 148.439 105.478 146.76 104.713 144.913C104.075 143.374 103.695 141.742 103.586 140.084C103.55 139.533 104.001 139.085 104.553 139.085H108.534C109.087 139.085 109.529 139.534 109.588 140.083C109.683 140.955 109.901 141.811 110.238 142.624C110.703 143.746 111.384 144.765 112.243 145.624C113.101 146.483 114.121 147.164 115.243 147.629C116.365 148.093 117.567 148.333 118.782 148.333C119.996 148.333 121.199 148.093 122.321 147.629C123.443 147.164 124.462 146.483 125.321 145.624C126.179 144.765 126.861 143.746 127.325 142.624C127.662 141.811 127.881 140.955 127.975 140.083C128.035 139.534 128.477 139.085 129.029 139.085H133.01Z" fill="black"/>
<path d="M166.496 374.367C166.576 388.432 145.847 399.934 120.194 400C94.6993 400.065 73.2555 388.476 73.0966 374.521C72.9378 360.368 93.5874 349.195 119.876 349.239C146.879 349.282 166.417 359.82 166.496 374.367Z" fill="black"/>
<path fill-rule="evenodd" clip-rule="evenodd" d="M92.5697 3.00257C38.6229 15.3124 -0.169064 64.0437 0.000580483 119.099C-0.0559675 138.863 4.01549 157.78 13.7417 175.002C42.8074 226.105 72.1558 277.095 101.73 327.916C110.382 342.823 128.704 342.823 137.299 327.972C143.686 316.942 150.095 305.922 156.504 294.902C179.657 255.09 202.817 215.267 225.005 174.889C244.231 139.823 244.062 103.119 226.702 66.98C202.838 17.3453 146.63 -9.36378 92.5697 3.00257ZM119.797 207.107C169.138 207.107 209.137 167.108 209.137 117.767C209.137 68.4257 169.138 28.4268 119.797 28.4268C70.4555 28.4268 30.4566 68.4257 30.4566 117.767C30.4566 167.108 70.4555 207.107 119.797 207.107Z" fill="#F05C44"/>
</svg>
