<svg width="150" height="150" viewBox="0 0 150 150" fill="none" xmlns="http://www.w3.org/2000/svg">
<rect width="150" height="150" fill="white"/>
<path d="M90.7213 37.1799C90.6491 39.3609 88.6762 41.1854 86.5074 41.0736C84.2768 40.9617 82.5273 39.0464 82.6167 36.8164C82.7026 34.5935 84.6102 32.8739 86.8718 32.9718C89.1815 33.0766 90.8003 34.8452 90.7213 37.1799Z" fill="black"/>
<path d="M65.6546 36.9828C65.6615 39.2301 63.8614 41.0679 61.6338 41.0784C59.4199 41.0889 57.5578 39.2371 57.544 37.0073C57.5302 34.746 59.3234 32.9608 61.6062 32.9678C63.9511 32.9748 65.6477 34.6585 65.6546 36.9828Z" fill="black"/>
<path d="M78.664 52.5071C79.2163 52.5071 79.6732 52.9583 79.5738 53.5016C79.5037 53.8852 79.393 54.2613 79.2431 54.6233C78.9651 55.2942 78.5578 55.9038 78.0443 56.4174C77.5308 56.9309 76.9212 57.3382 76.2502 57.6161C75.5793 57.894 74.8602 58.037 74.134 58.037C73.4078 58.037 72.6887 57.894 72.0178 57.6161C71.3468 57.3382 70.7372 56.9309 70.2237 56.4173C69.7102 55.9038 69.3029 55.2942 69.0249 54.6233C68.875 54.2613 68.7643 53.8852 68.6942 53.5016C68.5948 52.9583 69.0517 52.507 69.604 52.507L69.7759 52.507C70.3282 52.507 70.7616 52.9644 70.9237 53.4923C70.9548 53.5937 70.9908 53.6938 71.0315 53.7921C71.2003 54.1996 71.4476 54.5698 71.7595 54.8816C72.0713 55.1934 72.4415 55.4408 72.8489 55.6096C73.2563 55.7783 73.693 55.8652 74.134 55.8652C74.575 55.8652 75.0117 55.7783 75.4191 55.6096C75.8265 55.4408 76.1967 55.1934 76.5086 54.8816C76.8204 54.5698 77.0677 54.1996 77.2365 53.7921C77.2772 53.6938 77.3132 53.5937 77.3443 53.4923C77.5064 52.9644 77.9398 52.5071 78.4921 52.5071H78.664Z" fill="black"/>
<path d="M91.4612 137.947C91.49 143.054 83.9626 147.231 74.6469 147.255C65.389 147.279 57.602 143.07 57.5443 138.003C57.4866 132.863 64.9852 128.806 74.5316 128.822C84.3375 128.838 91.4323 132.664 91.4612 137.947Z" fill="black"/>
<path fill-rule="evenodd" clip-rule="evenodd" d="M64.6154 3.09034C45.0254 7.56051 30.9386 25.2566 31.0002 45.2494C30.9797 52.4262 32.4582 59.2955 35.9901 65.5497C46.5449 84.107 57.2024 102.623 67.9421 121.078C71.0839 126.492 77.7371 126.492 80.8583 121.099C83.1779 117.093 85.5051 113.091 87.8326 109.089C96.2402 94.6323 104.65 80.1711 112.708 65.5086C119.689 52.7748 119.628 39.4463 113.324 26.3229C104.658 8.2987 84.2466 -1.40033 64.6154 3.09034ZM74.5026 77.2081C92.4202 77.2081 106.945 62.6831 106.945 44.7655C106.945 26.8479 92.4202 12.3228 74.5026 12.3228C56.585 12.3228 42.06 26.8479 42.06 44.7655C42.06 62.6831 56.585 77.2081 74.5026 77.2081Z" fill="#F05C44"/>
</svg>
