<svg width="21" height="37" viewBox="0 0 89 148" fill="none" xmlns="http://www.w3.org/2000/svg">
<path d="M61.5254 138.339C61.5547 143.536 53.8947 147.787 44.4151 147.811C34.9943 147.835 27.0701 143.553 27.0114 138.396C26.9527 133.166 34.5834 129.037 44.2978 129.053C54.2763 129.069 61.496 132.963 61.5254 138.339Z" fill="black"/>
<path d="M50.2714 43.0796C50.2822 46.6138 47.4514 49.504 43.948 49.5205C40.4664 49.537 37.5379 46.6248 37.5162 43.1181C37.4945 39.5619 40.3146 36.7543 43.9047 36.7653C47.5924 36.7763 50.2605 39.4242 50.2714 43.0796Z" fill="black"/>
<path fill-rule="evenodd" clip-rule="evenodd" d="M34.2071 1.10953C14.2723 5.65839 -0.0624738 23.666 0.000214505 44.0106C-0.0206816 51.3138 1.48384 58.304 5.07797 64.6683C15.8186 83.5523 26.6636 102.395 37.5923 121.174C40.7894 126.683 47.5597 126.683 50.736 121.195C53.0962 117.119 55.4644 113.047 57.8327 108.975C66.3884 94.2631 74.9465 79.5472 83.1458 64.6265C90.2505 51.6686 90.1878 38.1055 83.7727 24.751C74.9545 6.40957 54.1838 -3.46018 34.2071 1.10953ZM44.2678 76.5319C62.5008 76.5319 77.2815 61.7511 77.2815 43.5182C77.2815 25.2852 62.5008 10.5045 44.2678 10.5045C26.0348 10.5045 11.2541 25.2852 11.2541 43.5182C11.2541 61.7511 26.0348 76.5319 44.2678 76.5319Z" fill="#F05C44"/>
</svg>
